%TF.GenerationSoftware,KiCad,Pcbnew,8.0.8-unknown-202501160222~12d96d1a90~ubuntu22.04.1*%
%TF.CreationDate,2025-02-14T10:10:46+09:00*%
%TF.ProjectId,MG5-ESP32-Shield,4d47352d-4553-4503-9332-2d536869656c,rev?*%
%TF.SameCoordinates,Original*%
%TF.FileFunction,Legend,Top*%
%TF.FilePolarity,Positive*%
%FSLAX46Y46*%
G04 Gerber Fmt 4.6, Leading zero omitted, Abs format (unit mm)*
G04 Created by KiCad (PCBNEW 8.0.8-unknown-202501160222~12d96d1a90~ubuntu22.04.1) date 2025-02-14 10:10:46*
%MOMM*%
%LPD*%
G01*
G04 APERTURE LIST*
%ADD10C,0.100000*%
G04 APERTURE END LIST*
D10*
X201985990Y-102428570D02*
X201938371Y-102523808D01*
X201938371Y-102523808D02*
X201890752Y-102571427D01*
X201890752Y-102571427D02*
X201795514Y-102619046D01*
X201795514Y-102619046D02*
X201747895Y-102619046D01*
X201747895Y-102619046D02*
X201652657Y-102571427D01*
X201652657Y-102571427D02*
X201605038Y-102523808D01*
X201605038Y-102523808D02*
X201557419Y-102428570D01*
X201557419Y-102428570D02*
X201557419Y-102238094D01*
X201557419Y-102238094D02*
X201605038Y-102142856D01*
X201605038Y-102142856D02*
X201652657Y-102095237D01*
X201652657Y-102095237D02*
X201747895Y-102047618D01*
X201747895Y-102047618D02*
X201795514Y-102047618D01*
X201795514Y-102047618D02*
X201890752Y-102095237D01*
X201890752Y-102095237D02*
X201938371Y-102142856D01*
X201938371Y-102142856D02*
X201985990Y-102238094D01*
X201985990Y-102238094D02*
X201985990Y-102428570D01*
X201985990Y-102428570D02*
X202033609Y-102523808D01*
X202033609Y-102523808D02*
X202081228Y-102571427D01*
X202081228Y-102571427D02*
X202176466Y-102619046D01*
X202176466Y-102619046D02*
X202366942Y-102619046D01*
X202366942Y-102619046D02*
X202462180Y-102571427D01*
X202462180Y-102571427D02*
X202509800Y-102523808D01*
X202509800Y-102523808D02*
X202557419Y-102428570D01*
X202557419Y-102428570D02*
X202557419Y-102238094D01*
X202557419Y-102238094D02*
X202509800Y-102142856D01*
X202509800Y-102142856D02*
X202462180Y-102095237D01*
X202462180Y-102095237D02*
X202366942Y-102047618D01*
X202366942Y-102047618D02*
X202176466Y-102047618D01*
X202176466Y-102047618D02*
X202081228Y-102095237D01*
X202081228Y-102095237D02*
X202033609Y-102142856D01*
X202033609Y-102142856D02*
X201985990Y-102238094D01*
X201557419Y-101428570D02*
X201557419Y-101333332D01*
X201557419Y-101333332D02*
X201605038Y-101238094D01*
X201605038Y-101238094D02*
X201652657Y-101190475D01*
X201652657Y-101190475D02*
X201747895Y-101142856D01*
X201747895Y-101142856D02*
X201938371Y-101095237D01*
X201938371Y-101095237D02*
X202176466Y-101095237D01*
X202176466Y-101095237D02*
X202366942Y-101142856D01*
X202366942Y-101142856D02*
X202462180Y-101190475D01*
X202462180Y-101190475D02*
X202509800Y-101238094D01*
X202509800Y-101238094D02*
X202557419Y-101333332D01*
X202557419Y-101333332D02*
X202557419Y-101428570D01*
X202557419Y-101428570D02*
X202509800Y-101523808D01*
X202509800Y-101523808D02*
X202462180Y-101571427D01*
X202462180Y-101571427D02*
X202366942Y-101619046D01*
X202366942Y-101619046D02*
X202176466Y-101666665D01*
X202176466Y-101666665D02*
X201938371Y-101666665D01*
X201938371Y-101666665D02*
X201747895Y-101619046D01*
X201747895Y-101619046D02*
X201652657Y-101571427D01*
X201652657Y-101571427D02*
X201605038Y-101523808D01*
X201605038Y-101523808D02*
X201557419Y-101428570D01*
X202462180Y-100666665D02*
X202509800Y-100619046D01*
X202509800Y-100619046D02*
X202557419Y-100666665D01*
X202557419Y-100666665D02*
X202509800Y-100714284D01*
X202509800Y-100714284D02*
X202462180Y-100666665D01*
X202462180Y-100666665D02*
X202557419Y-100666665D01*
X201557419Y-99999999D02*
X201557419Y-99904761D01*
X201557419Y-99904761D02*
X201605038Y-99809523D01*
X201605038Y-99809523D02*
X201652657Y-99761904D01*
X201652657Y-99761904D02*
X201747895Y-99714285D01*
X201747895Y-99714285D02*
X201938371Y-99666666D01*
X201938371Y-99666666D02*
X202176466Y-99666666D01*
X202176466Y-99666666D02*
X202366942Y-99714285D01*
X202366942Y-99714285D02*
X202462180Y-99761904D01*
X202462180Y-99761904D02*
X202509800Y-99809523D01*
X202509800Y-99809523D02*
X202557419Y-99904761D01*
X202557419Y-99904761D02*
X202557419Y-99999999D01*
X202557419Y-99999999D02*
X202509800Y-100095237D01*
X202509800Y-100095237D02*
X202462180Y-100142856D01*
X202462180Y-100142856D02*
X202366942Y-100190475D01*
X202366942Y-100190475D02*
X202176466Y-100238094D01*
X202176466Y-100238094D02*
X201938371Y-100238094D01*
X201938371Y-100238094D02*
X201747895Y-100190475D01*
X201747895Y-100190475D02*
X201652657Y-100142856D01*
X201652657Y-100142856D02*
X201605038Y-100095237D01*
X201605038Y-100095237D02*
X201557419Y-99999999D01*
X201557419Y-99047618D02*
X201557419Y-98952380D01*
X201557419Y-98952380D02*
X201605038Y-98857142D01*
X201605038Y-98857142D02*
X201652657Y-98809523D01*
X201652657Y-98809523D02*
X201747895Y-98761904D01*
X201747895Y-98761904D02*
X201938371Y-98714285D01*
X201938371Y-98714285D02*
X202176466Y-98714285D01*
X202176466Y-98714285D02*
X202366942Y-98761904D01*
X202366942Y-98761904D02*
X202462180Y-98809523D01*
X202462180Y-98809523D02*
X202509800Y-98857142D01*
X202509800Y-98857142D02*
X202557419Y-98952380D01*
X202557419Y-98952380D02*
X202557419Y-99047618D01*
X202557419Y-99047618D02*
X202509800Y-99142856D01*
X202509800Y-99142856D02*
X202462180Y-99190475D01*
X202462180Y-99190475D02*
X202366942Y-99238094D01*
X202366942Y-99238094D02*
X202176466Y-99285713D01*
X202176466Y-99285713D02*
X201938371Y-99285713D01*
X201938371Y-99285713D02*
X201747895Y-99238094D01*
X201747895Y-99238094D02*
X201652657Y-99190475D01*
X201652657Y-99190475D02*
X201605038Y-99142856D01*
X201605038Y-99142856D02*
X201557419Y-99047618D01*
X201557419Y-98095237D02*
X201557419Y-97999999D01*
X201557419Y-97999999D02*
X201605038Y-97904761D01*
X201605038Y-97904761D02*
X201652657Y-97857142D01*
X201652657Y-97857142D02*
X201747895Y-97809523D01*
X201747895Y-97809523D02*
X201938371Y-97761904D01*
X201938371Y-97761904D02*
X202176466Y-97761904D01*
X202176466Y-97761904D02*
X202366942Y-97809523D01*
X202366942Y-97809523D02*
X202462180Y-97857142D01*
X202462180Y-97857142D02*
X202509800Y-97904761D01*
X202509800Y-97904761D02*
X202557419Y-97999999D01*
X202557419Y-97999999D02*
X202557419Y-98095237D01*
X202557419Y-98095237D02*
X202509800Y-98190475D01*
X202509800Y-98190475D02*
X202462180Y-98238094D01*
X202462180Y-98238094D02*
X202366942Y-98285713D01*
X202366942Y-98285713D02*
X202176466Y-98333332D01*
X202176466Y-98333332D02*
X201938371Y-98333332D01*
X201938371Y-98333332D02*
X201747895Y-98285713D01*
X201747895Y-98285713D02*
X201652657Y-98238094D01*
X201652657Y-98238094D02*
X201605038Y-98190475D01*
X201605038Y-98190475D02*
X201557419Y-98095237D01*
X201557419Y-97142856D02*
X201557419Y-97047618D01*
X201557419Y-97047618D02*
X201605038Y-96952380D01*
X201605038Y-96952380D02*
X201652657Y-96904761D01*
X201652657Y-96904761D02*
X201747895Y-96857142D01*
X201747895Y-96857142D02*
X201938371Y-96809523D01*
X201938371Y-96809523D02*
X202176466Y-96809523D01*
X202176466Y-96809523D02*
X202366942Y-96857142D01*
X202366942Y-96857142D02*
X202462180Y-96904761D01*
X202462180Y-96904761D02*
X202509800Y-96952380D01*
X202509800Y-96952380D02*
X202557419Y-97047618D01*
X202557419Y-97047618D02*
X202557419Y-97142856D01*
X202557419Y-97142856D02*
X202509800Y-97238094D01*
X202509800Y-97238094D02*
X202462180Y-97285713D01*
X202462180Y-97285713D02*
X202366942Y-97333332D01*
X202366942Y-97333332D02*
X202176466Y-97380951D01*
X202176466Y-97380951D02*
X201938371Y-97380951D01*
X201938371Y-97380951D02*
X201747895Y-97333332D01*
X201747895Y-97333332D02*
X201652657Y-97285713D01*
X201652657Y-97285713D02*
X201605038Y-97238094D01*
X201605038Y-97238094D02*
X201557419Y-97142856D01*
X202557419Y-95619046D02*
X201890752Y-95619046D01*
X201985990Y-95619046D02*
X201938371Y-95571427D01*
X201938371Y-95571427D02*
X201890752Y-95476189D01*
X201890752Y-95476189D02*
X201890752Y-95333332D01*
X201890752Y-95333332D02*
X201938371Y-95238094D01*
X201938371Y-95238094D02*
X202033609Y-95190475D01*
X202033609Y-95190475D02*
X202557419Y-95190475D01*
X202033609Y-95190475D02*
X201938371Y-95142856D01*
X201938371Y-95142856D02*
X201890752Y-95047618D01*
X201890752Y-95047618D02*
X201890752Y-94904761D01*
X201890752Y-94904761D02*
X201938371Y-94809522D01*
X201938371Y-94809522D02*
X202033609Y-94761903D01*
X202033609Y-94761903D02*
X202557419Y-94761903D01*
X202557419Y-94285713D02*
X201890752Y-94285713D01*
X201985990Y-94285713D02*
X201938371Y-94238094D01*
X201938371Y-94238094D02*
X201890752Y-94142856D01*
X201890752Y-94142856D02*
X201890752Y-93999999D01*
X201890752Y-93999999D02*
X201938371Y-93904761D01*
X201938371Y-93904761D02*
X202033609Y-93857142D01*
X202033609Y-93857142D02*
X202557419Y-93857142D01*
X202033609Y-93857142D02*
X201938371Y-93809523D01*
X201938371Y-93809523D02*
X201890752Y-93714285D01*
X201890752Y-93714285D02*
X201890752Y-93571428D01*
X201890752Y-93571428D02*
X201938371Y-93476189D01*
X201938371Y-93476189D02*
X202033609Y-93428570D01*
X202033609Y-93428570D02*
X202557419Y-93428570D01*
X191500000Y-138000000D02*
X203786420Y-138000000D01*
X191500000Y-58000000D02*
X203786420Y-58000000D01*
X203200000Y-138000000D02*
X203200000Y-58000000D01*
X203200000Y-138000000D02*
X203200000Y-58000000D01*
X203200000Y-138000000D02*
X202613579Y-136873496D01*
X203200000Y-138000000D02*
X203786421Y-136873496D01*
X203200000Y-58000000D02*
X203786421Y-59126504D01*
X203200000Y-58000000D02*
X202613579Y-59126504D01*
X150333334Y-148217419D02*
X151000000Y-148217419D01*
X151000000Y-148217419D02*
X150571429Y-149217419D01*
X151333334Y-148312657D02*
X151380953Y-148265038D01*
X151380953Y-148265038D02*
X151476191Y-148217419D01*
X151476191Y-148217419D02*
X151714286Y-148217419D01*
X151714286Y-148217419D02*
X151809524Y-148265038D01*
X151809524Y-148265038D02*
X151857143Y-148312657D01*
X151857143Y-148312657D02*
X151904762Y-148407895D01*
X151904762Y-148407895D02*
X151904762Y-148503133D01*
X151904762Y-148503133D02*
X151857143Y-148645990D01*
X151857143Y-148645990D02*
X151285715Y-149217419D01*
X151285715Y-149217419D02*
X151904762Y-149217419D01*
X152333334Y-149122180D02*
X152380953Y-149169800D01*
X152380953Y-149169800D02*
X152333334Y-149217419D01*
X152333334Y-149217419D02*
X152285715Y-149169800D01*
X152285715Y-149169800D02*
X152333334Y-149122180D01*
X152333334Y-149122180D02*
X152333334Y-149217419D01*
X153000000Y-148217419D02*
X153095238Y-148217419D01*
X153095238Y-148217419D02*
X153190476Y-148265038D01*
X153190476Y-148265038D02*
X153238095Y-148312657D01*
X153238095Y-148312657D02*
X153285714Y-148407895D01*
X153285714Y-148407895D02*
X153333333Y-148598371D01*
X153333333Y-148598371D02*
X153333333Y-148836466D01*
X153333333Y-148836466D02*
X153285714Y-149026942D01*
X153285714Y-149026942D02*
X153238095Y-149122180D01*
X153238095Y-149122180D02*
X153190476Y-149169800D01*
X153190476Y-149169800D02*
X153095238Y-149217419D01*
X153095238Y-149217419D02*
X153000000Y-149217419D01*
X153000000Y-149217419D02*
X152904762Y-149169800D01*
X152904762Y-149169800D02*
X152857143Y-149122180D01*
X152857143Y-149122180D02*
X152809524Y-149026942D01*
X152809524Y-149026942D02*
X152761905Y-148836466D01*
X152761905Y-148836466D02*
X152761905Y-148598371D01*
X152761905Y-148598371D02*
X152809524Y-148407895D01*
X152809524Y-148407895D02*
X152857143Y-148312657D01*
X152857143Y-148312657D02*
X152904762Y-148265038D01*
X152904762Y-148265038D02*
X153000000Y-148217419D01*
X153952381Y-148217419D02*
X154047619Y-148217419D01*
X154047619Y-148217419D02*
X154142857Y-148265038D01*
X154142857Y-148265038D02*
X154190476Y-148312657D01*
X154190476Y-148312657D02*
X154238095Y-148407895D01*
X154238095Y-148407895D02*
X154285714Y-148598371D01*
X154285714Y-148598371D02*
X154285714Y-148836466D01*
X154285714Y-148836466D02*
X154238095Y-149026942D01*
X154238095Y-149026942D02*
X154190476Y-149122180D01*
X154190476Y-149122180D02*
X154142857Y-149169800D01*
X154142857Y-149169800D02*
X154047619Y-149217419D01*
X154047619Y-149217419D02*
X153952381Y-149217419D01*
X153952381Y-149217419D02*
X153857143Y-149169800D01*
X153857143Y-149169800D02*
X153809524Y-149122180D01*
X153809524Y-149122180D02*
X153761905Y-149026942D01*
X153761905Y-149026942D02*
X153714286Y-148836466D01*
X153714286Y-148836466D02*
X153714286Y-148598371D01*
X153714286Y-148598371D02*
X153761905Y-148407895D01*
X153761905Y-148407895D02*
X153809524Y-148312657D01*
X153809524Y-148312657D02*
X153857143Y-148265038D01*
X153857143Y-148265038D02*
X153952381Y-148217419D01*
X154904762Y-148217419D02*
X155000000Y-148217419D01*
X155000000Y-148217419D02*
X155095238Y-148265038D01*
X155095238Y-148265038D02*
X155142857Y-148312657D01*
X155142857Y-148312657D02*
X155190476Y-148407895D01*
X155190476Y-148407895D02*
X155238095Y-148598371D01*
X155238095Y-148598371D02*
X155238095Y-148836466D01*
X155238095Y-148836466D02*
X155190476Y-149026942D01*
X155190476Y-149026942D02*
X155142857Y-149122180D01*
X155142857Y-149122180D02*
X155095238Y-149169800D01*
X155095238Y-149169800D02*
X155000000Y-149217419D01*
X155000000Y-149217419D02*
X154904762Y-149217419D01*
X154904762Y-149217419D02*
X154809524Y-149169800D01*
X154809524Y-149169800D02*
X154761905Y-149122180D01*
X154761905Y-149122180D02*
X154714286Y-149026942D01*
X154714286Y-149026942D02*
X154666667Y-148836466D01*
X154666667Y-148836466D02*
X154666667Y-148598371D01*
X154666667Y-148598371D02*
X154714286Y-148407895D01*
X154714286Y-148407895D02*
X154761905Y-148312657D01*
X154761905Y-148312657D02*
X154809524Y-148265038D01*
X154809524Y-148265038D02*
X154904762Y-148217419D01*
X155857143Y-148217419D02*
X155952381Y-148217419D01*
X155952381Y-148217419D02*
X156047619Y-148265038D01*
X156047619Y-148265038D02*
X156095238Y-148312657D01*
X156095238Y-148312657D02*
X156142857Y-148407895D01*
X156142857Y-148407895D02*
X156190476Y-148598371D01*
X156190476Y-148598371D02*
X156190476Y-148836466D01*
X156190476Y-148836466D02*
X156142857Y-149026942D01*
X156142857Y-149026942D02*
X156095238Y-149122180D01*
X156095238Y-149122180D02*
X156047619Y-149169800D01*
X156047619Y-149169800D02*
X155952381Y-149217419D01*
X155952381Y-149217419D02*
X155857143Y-149217419D01*
X155857143Y-149217419D02*
X155761905Y-149169800D01*
X155761905Y-149169800D02*
X155714286Y-149122180D01*
X155714286Y-149122180D02*
X155666667Y-149026942D01*
X155666667Y-149026942D02*
X155619048Y-148836466D01*
X155619048Y-148836466D02*
X155619048Y-148598371D01*
X155619048Y-148598371D02*
X155666667Y-148407895D01*
X155666667Y-148407895D02*
X155714286Y-148312657D01*
X155714286Y-148312657D02*
X155761905Y-148265038D01*
X155761905Y-148265038D02*
X155857143Y-148217419D01*
X157380953Y-149217419D02*
X157380953Y-148550752D01*
X157380953Y-148645990D02*
X157428572Y-148598371D01*
X157428572Y-148598371D02*
X157523810Y-148550752D01*
X157523810Y-148550752D02*
X157666667Y-148550752D01*
X157666667Y-148550752D02*
X157761905Y-148598371D01*
X157761905Y-148598371D02*
X157809524Y-148693609D01*
X157809524Y-148693609D02*
X157809524Y-149217419D01*
X157809524Y-148693609D02*
X157857143Y-148598371D01*
X157857143Y-148598371D02*
X157952381Y-148550752D01*
X157952381Y-148550752D02*
X158095238Y-148550752D01*
X158095238Y-148550752D02*
X158190477Y-148598371D01*
X158190477Y-148598371D02*
X158238096Y-148693609D01*
X158238096Y-148693609D02*
X158238096Y-149217419D01*
X158714286Y-149217419D02*
X158714286Y-148550752D01*
X158714286Y-148645990D02*
X158761905Y-148598371D01*
X158761905Y-148598371D02*
X158857143Y-148550752D01*
X158857143Y-148550752D02*
X159000000Y-148550752D01*
X159000000Y-148550752D02*
X159095238Y-148598371D01*
X159095238Y-148598371D02*
X159142857Y-148693609D01*
X159142857Y-148693609D02*
X159142857Y-149217419D01*
X159142857Y-148693609D02*
X159190476Y-148598371D01*
X159190476Y-148598371D02*
X159285714Y-148550752D01*
X159285714Y-148550752D02*
X159428571Y-148550752D01*
X159428571Y-148550752D02*
X159523810Y-148598371D01*
X159523810Y-148598371D02*
X159571429Y-148693609D01*
X159571429Y-148693609D02*
X159571429Y-149217419D01*
X119000000Y-138500000D02*
X119000000Y-150446420D01*
X191000000Y-138500000D02*
X191000000Y-150446420D01*
X119000000Y-149860000D02*
X191000000Y-149860000D01*
X119000000Y-149860000D02*
X191000000Y-149860000D01*
X119000000Y-149860000D02*
X120126504Y-149273579D01*
X119000000Y-149860000D02*
X120126504Y-150446421D01*
X191000000Y-149860000D02*
X189873496Y-150446421D01*
X191000000Y-149860000D02*
X189873496Y-149273579D01*
X206637419Y-144119047D02*
X206637419Y-144595237D01*
X206637419Y-144595237D02*
X207113609Y-144642856D01*
X207113609Y-144642856D02*
X207065990Y-144595237D01*
X207065990Y-144595237D02*
X207018371Y-144499999D01*
X207018371Y-144499999D02*
X207018371Y-144261904D01*
X207018371Y-144261904D02*
X207065990Y-144166666D01*
X207065990Y-144166666D02*
X207113609Y-144119047D01*
X207113609Y-144119047D02*
X207208847Y-144071428D01*
X207208847Y-144071428D02*
X207446942Y-144071428D01*
X207446942Y-144071428D02*
X207542180Y-144119047D01*
X207542180Y-144119047D02*
X207589800Y-144166666D01*
X207589800Y-144166666D02*
X207637419Y-144261904D01*
X207637419Y-144261904D02*
X207637419Y-144499999D01*
X207637419Y-144499999D02*
X207589800Y-144595237D01*
X207589800Y-144595237D02*
X207542180Y-144642856D01*
X207542180Y-143642856D02*
X207589800Y-143595237D01*
X207589800Y-143595237D02*
X207637419Y-143642856D01*
X207637419Y-143642856D02*
X207589800Y-143690475D01*
X207589800Y-143690475D02*
X207542180Y-143642856D01*
X207542180Y-143642856D02*
X207637419Y-143642856D01*
X206637419Y-142976190D02*
X206637419Y-142880952D01*
X206637419Y-142880952D02*
X206685038Y-142785714D01*
X206685038Y-142785714D02*
X206732657Y-142738095D01*
X206732657Y-142738095D02*
X206827895Y-142690476D01*
X206827895Y-142690476D02*
X207018371Y-142642857D01*
X207018371Y-142642857D02*
X207256466Y-142642857D01*
X207256466Y-142642857D02*
X207446942Y-142690476D01*
X207446942Y-142690476D02*
X207542180Y-142738095D01*
X207542180Y-142738095D02*
X207589800Y-142785714D01*
X207589800Y-142785714D02*
X207637419Y-142880952D01*
X207637419Y-142880952D02*
X207637419Y-142976190D01*
X207637419Y-142976190D02*
X207589800Y-143071428D01*
X207589800Y-143071428D02*
X207542180Y-143119047D01*
X207542180Y-143119047D02*
X207446942Y-143166666D01*
X207446942Y-143166666D02*
X207256466Y-143214285D01*
X207256466Y-143214285D02*
X207018371Y-143214285D01*
X207018371Y-143214285D02*
X206827895Y-143166666D01*
X206827895Y-143166666D02*
X206732657Y-143119047D01*
X206732657Y-143119047D02*
X206685038Y-143071428D01*
X206685038Y-143071428D02*
X206637419Y-142976190D01*
X206637419Y-142023809D02*
X206637419Y-141928571D01*
X206637419Y-141928571D02*
X206685038Y-141833333D01*
X206685038Y-141833333D02*
X206732657Y-141785714D01*
X206732657Y-141785714D02*
X206827895Y-141738095D01*
X206827895Y-141738095D02*
X207018371Y-141690476D01*
X207018371Y-141690476D02*
X207256466Y-141690476D01*
X207256466Y-141690476D02*
X207446942Y-141738095D01*
X207446942Y-141738095D02*
X207542180Y-141785714D01*
X207542180Y-141785714D02*
X207589800Y-141833333D01*
X207589800Y-141833333D02*
X207637419Y-141928571D01*
X207637419Y-141928571D02*
X207637419Y-142023809D01*
X207637419Y-142023809D02*
X207589800Y-142119047D01*
X207589800Y-142119047D02*
X207542180Y-142166666D01*
X207542180Y-142166666D02*
X207446942Y-142214285D01*
X207446942Y-142214285D02*
X207256466Y-142261904D01*
X207256466Y-142261904D02*
X207018371Y-142261904D01*
X207018371Y-142261904D02*
X206827895Y-142214285D01*
X206827895Y-142214285D02*
X206732657Y-142166666D01*
X206732657Y-142166666D02*
X206685038Y-142119047D01*
X206685038Y-142119047D02*
X206637419Y-142023809D01*
X206637419Y-141071428D02*
X206637419Y-140976190D01*
X206637419Y-140976190D02*
X206685038Y-140880952D01*
X206685038Y-140880952D02*
X206732657Y-140833333D01*
X206732657Y-140833333D02*
X206827895Y-140785714D01*
X206827895Y-140785714D02*
X207018371Y-140738095D01*
X207018371Y-140738095D02*
X207256466Y-140738095D01*
X207256466Y-140738095D02*
X207446942Y-140785714D01*
X207446942Y-140785714D02*
X207542180Y-140833333D01*
X207542180Y-140833333D02*
X207589800Y-140880952D01*
X207589800Y-140880952D02*
X207637419Y-140976190D01*
X207637419Y-140976190D02*
X207637419Y-141071428D01*
X207637419Y-141071428D02*
X207589800Y-141166666D01*
X207589800Y-141166666D02*
X207542180Y-141214285D01*
X207542180Y-141214285D02*
X207446942Y-141261904D01*
X207446942Y-141261904D02*
X207256466Y-141309523D01*
X207256466Y-141309523D02*
X207018371Y-141309523D01*
X207018371Y-141309523D02*
X206827895Y-141261904D01*
X206827895Y-141261904D02*
X206732657Y-141214285D01*
X206732657Y-141214285D02*
X206685038Y-141166666D01*
X206685038Y-141166666D02*
X206637419Y-141071428D01*
X206637419Y-140119047D02*
X206637419Y-140023809D01*
X206637419Y-140023809D02*
X206685038Y-139928571D01*
X206685038Y-139928571D02*
X206732657Y-139880952D01*
X206732657Y-139880952D02*
X206827895Y-139833333D01*
X206827895Y-139833333D02*
X207018371Y-139785714D01*
X207018371Y-139785714D02*
X207256466Y-139785714D01*
X207256466Y-139785714D02*
X207446942Y-139833333D01*
X207446942Y-139833333D02*
X207542180Y-139880952D01*
X207542180Y-139880952D02*
X207589800Y-139928571D01*
X207589800Y-139928571D02*
X207637419Y-140023809D01*
X207637419Y-140023809D02*
X207637419Y-140119047D01*
X207637419Y-140119047D02*
X207589800Y-140214285D01*
X207589800Y-140214285D02*
X207542180Y-140261904D01*
X207542180Y-140261904D02*
X207446942Y-140309523D01*
X207446942Y-140309523D02*
X207256466Y-140357142D01*
X207256466Y-140357142D02*
X207018371Y-140357142D01*
X207018371Y-140357142D02*
X206827895Y-140309523D01*
X206827895Y-140309523D02*
X206732657Y-140261904D01*
X206732657Y-140261904D02*
X206685038Y-140214285D01*
X206685038Y-140214285D02*
X206637419Y-140119047D01*
X207637419Y-138595237D02*
X206970752Y-138595237D01*
X207065990Y-138595237D02*
X207018371Y-138547618D01*
X207018371Y-138547618D02*
X206970752Y-138452380D01*
X206970752Y-138452380D02*
X206970752Y-138309523D01*
X206970752Y-138309523D02*
X207018371Y-138214285D01*
X207018371Y-138214285D02*
X207113609Y-138166666D01*
X207113609Y-138166666D02*
X207637419Y-138166666D01*
X207113609Y-138166666D02*
X207018371Y-138119047D01*
X207018371Y-138119047D02*
X206970752Y-138023809D01*
X206970752Y-138023809D02*
X206970752Y-137880952D01*
X206970752Y-137880952D02*
X207018371Y-137785713D01*
X207018371Y-137785713D02*
X207113609Y-137738094D01*
X207113609Y-137738094D02*
X207637419Y-137738094D01*
X207637419Y-137261904D02*
X206970752Y-137261904D01*
X207065990Y-137261904D02*
X207018371Y-137214285D01*
X207018371Y-137214285D02*
X206970752Y-137119047D01*
X206970752Y-137119047D02*
X206970752Y-136976190D01*
X206970752Y-136976190D02*
X207018371Y-136880952D01*
X207018371Y-136880952D02*
X207113609Y-136833333D01*
X207113609Y-136833333D02*
X207637419Y-136833333D01*
X207113609Y-136833333D02*
X207018371Y-136785714D01*
X207018371Y-136785714D02*
X206970752Y-136690476D01*
X206970752Y-136690476D02*
X206970752Y-136547619D01*
X206970752Y-136547619D02*
X207018371Y-136452380D01*
X207018371Y-136452380D02*
X207113609Y-136404761D01*
X207113609Y-136404761D02*
X207637419Y-136404761D01*
X191500000Y-138000000D02*
X208866420Y-138000000D01*
X191500000Y-143000000D02*
X208866420Y-143000000D01*
X208280000Y-138000000D02*
X208280000Y-143000000D01*
X208280000Y-138000000D02*
X208280000Y-143000000D01*
X208280000Y-138000000D02*
X208866421Y-139126504D01*
X208280000Y-138000000D02*
X207693579Y-139126504D01*
X208280000Y-143000000D02*
X207693579Y-141873496D01*
X208280000Y-143000000D02*
X208866421Y-141873496D01*
X150571429Y-152785990D02*
X150476191Y-152738371D01*
X150476191Y-152738371D02*
X150428572Y-152690752D01*
X150428572Y-152690752D02*
X150380953Y-152595514D01*
X150380953Y-152595514D02*
X150380953Y-152547895D01*
X150380953Y-152547895D02*
X150428572Y-152452657D01*
X150428572Y-152452657D02*
X150476191Y-152405038D01*
X150476191Y-152405038D02*
X150571429Y-152357419D01*
X150571429Y-152357419D02*
X150761905Y-152357419D01*
X150761905Y-152357419D02*
X150857143Y-152405038D01*
X150857143Y-152405038D02*
X150904762Y-152452657D01*
X150904762Y-152452657D02*
X150952381Y-152547895D01*
X150952381Y-152547895D02*
X150952381Y-152595514D01*
X150952381Y-152595514D02*
X150904762Y-152690752D01*
X150904762Y-152690752D02*
X150857143Y-152738371D01*
X150857143Y-152738371D02*
X150761905Y-152785990D01*
X150761905Y-152785990D02*
X150571429Y-152785990D01*
X150571429Y-152785990D02*
X150476191Y-152833609D01*
X150476191Y-152833609D02*
X150428572Y-152881228D01*
X150428572Y-152881228D02*
X150380953Y-152976466D01*
X150380953Y-152976466D02*
X150380953Y-153166942D01*
X150380953Y-153166942D02*
X150428572Y-153262180D01*
X150428572Y-153262180D02*
X150476191Y-153309800D01*
X150476191Y-153309800D02*
X150571429Y-153357419D01*
X150571429Y-153357419D02*
X150761905Y-153357419D01*
X150761905Y-153357419D02*
X150857143Y-153309800D01*
X150857143Y-153309800D02*
X150904762Y-153262180D01*
X150904762Y-153262180D02*
X150952381Y-153166942D01*
X150952381Y-153166942D02*
X150952381Y-152976466D01*
X150952381Y-152976466D02*
X150904762Y-152881228D01*
X150904762Y-152881228D02*
X150857143Y-152833609D01*
X150857143Y-152833609D02*
X150761905Y-152785990D01*
X151333334Y-152452657D02*
X151380953Y-152405038D01*
X151380953Y-152405038D02*
X151476191Y-152357419D01*
X151476191Y-152357419D02*
X151714286Y-152357419D01*
X151714286Y-152357419D02*
X151809524Y-152405038D01*
X151809524Y-152405038D02*
X151857143Y-152452657D01*
X151857143Y-152452657D02*
X151904762Y-152547895D01*
X151904762Y-152547895D02*
X151904762Y-152643133D01*
X151904762Y-152643133D02*
X151857143Y-152785990D01*
X151857143Y-152785990D02*
X151285715Y-153357419D01*
X151285715Y-153357419D02*
X151904762Y-153357419D01*
X152333334Y-153262180D02*
X152380953Y-153309800D01*
X152380953Y-153309800D02*
X152333334Y-153357419D01*
X152333334Y-153357419D02*
X152285715Y-153309800D01*
X152285715Y-153309800D02*
X152333334Y-153262180D01*
X152333334Y-153262180D02*
X152333334Y-153357419D01*
X153000000Y-152357419D02*
X153095238Y-152357419D01*
X153095238Y-152357419D02*
X153190476Y-152405038D01*
X153190476Y-152405038D02*
X153238095Y-152452657D01*
X153238095Y-152452657D02*
X153285714Y-152547895D01*
X153285714Y-152547895D02*
X153333333Y-152738371D01*
X153333333Y-152738371D02*
X153333333Y-152976466D01*
X153333333Y-152976466D02*
X153285714Y-153166942D01*
X153285714Y-153166942D02*
X153238095Y-153262180D01*
X153238095Y-153262180D02*
X153190476Y-153309800D01*
X153190476Y-153309800D02*
X153095238Y-153357419D01*
X153095238Y-153357419D02*
X153000000Y-153357419D01*
X153000000Y-153357419D02*
X152904762Y-153309800D01*
X152904762Y-153309800D02*
X152857143Y-153262180D01*
X152857143Y-153262180D02*
X152809524Y-153166942D01*
X152809524Y-153166942D02*
X152761905Y-152976466D01*
X152761905Y-152976466D02*
X152761905Y-152738371D01*
X152761905Y-152738371D02*
X152809524Y-152547895D01*
X152809524Y-152547895D02*
X152857143Y-152452657D01*
X152857143Y-152452657D02*
X152904762Y-152405038D01*
X152904762Y-152405038D02*
X153000000Y-152357419D01*
X153952381Y-152357419D02*
X154047619Y-152357419D01*
X154047619Y-152357419D02*
X154142857Y-152405038D01*
X154142857Y-152405038D02*
X154190476Y-152452657D01*
X154190476Y-152452657D02*
X154238095Y-152547895D01*
X154238095Y-152547895D02*
X154285714Y-152738371D01*
X154285714Y-152738371D02*
X154285714Y-152976466D01*
X154285714Y-152976466D02*
X154238095Y-153166942D01*
X154238095Y-153166942D02*
X154190476Y-153262180D01*
X154190476Y-153262180D02*
X154142857Y-153309800D01*
X154142857Y-153309800D02*
X154047619Y-153357419D01*
X154047619Y-153357419D02*
X153952381Y-153357419D01*
X153952381Y-153357419D02*
X153857143Y-153309800D01*
X153857143Y-153309800D02*
X153809524Y-153262180D01*
X153809524Y-153262180D02*
X153761905Y-153166942D01*
X153761905Y-153166942D02*
X153714286Y-152976466D01*
X153714286Y-152976466D02*
X153714286Y-152738371D01*
X153714286Y-152738371D02*
X153761905Y-152547895D01*
X153761905Y-152547895D02*
X153809524Y-152452657D01*
X153809524Y-152452657D02*
X153857143Y-152405038D01*
X153857143Y-152405038D02*
X153952381Y-152357419D01*
X154904762Y-152357419D02*
X155000000Y-152357419D01*
X155000000Y-152357419D02*
X155095238Y-152405038D01*
X155095238Y-152405038D02*
X155142857Y-152452657D01*
X155142857Y-152452657D02*
X155190476Y-152547895D01*
X155190476Y-152547895D02*
X155238095Y-152738371D01*
X155238095Y-152738371D02*
X155238095Y-152976466D01*
X155238095Y-152976466D02*
X155190476Y-153166942D01*
X155190476Y-153166942D02*
X155142857Y-153262180D01*
X155142857Y-153262180D02*
X155095238Y-153309800D01*
X155095238Y-153309800D02*
X155000000Y-153357419D01*
X155000000Y-153357419D02*
X154904762Y-153357419D01*
X154904762Y-153357419D02*
X154809524Y-153309800D01*
X154809524Y-153309800D02*
X154761905Y-153262180D01*
X154761905Y-153262180D02*
X154714286Y-153166942D01*
X154714286Y-153166942D02*
X154666667Y-152976466D01*
X154666667Y-152976466D02*
X154666667Y-152738371D01*
X154666667Y-152738371D02*
X154714286Y-152547895D01*
X154714286Y-152547895D02*
X154761905Y-152452657D01*
X154761905Y-152452657D02*
X154809524Y-152405038D01*
X154809524Y-152405038D02*
X154904762Y-152357419D01*
X155857143Y-152357419D02*
X155952381Y-152357419D01*
X155952381Y-152357419D02*
X156047619Y-152405038D01*
X156047619Y-152405038D02*
X156095238Y-152452657D01*
X156095238Y-152452657D02*
X156142857Y-152547895D01*
X156142857Y-152547895D02*
X156190476Y-152738371D01*
X156190476Y-152738371D02*
X156190476Y-152976466D01*
X156190476Y-152976466D02*
X156142857Y-153166942D01*
X156142857Y-153166942D02*
X156095238Y-153262180D01*
X156095238Y-153262180D02*
X156047619Y-153309800D01*
X156047619Y-153309800D02*
X155952381Y-153357419D01*
X155952381Y-153357419D02*
X155857143Y-153357419D01*
X155857143Y-153357419D02*
X155761905Y-153309800D01*
X155761905Y-153309800D02*
X155714286Y-153262180D01*
X155714286Y-153262180D02*
X155666667Y-153166942D01*
X155666667Y-153166942D02*
X155619048Y-152976466D01*
X155619048Y-152976466D02*
X155619048Y-152738371D01*
X155619048Y-152738371D02*
X155666667Y-152547895D01*
X155666667Y-152547895D02*
X155714286Y-152452657D01*
X155714286Y-152452657D02*
X155761905Y-152405038D01*
X155761905Y-152405038D02*
X155857143Y-152357419D01*
X157380953Y-153357419D02*
X157380953Y-152690752D01*
X157380953Y-152785990D02*
X157428572Y-152738371D01*
X157428572Y-152738371D02*
X157523810Y-152690752D01*
X157523810Y-152690752D02*
X157666667Y-152690752D01*
X157666667Y-152690752D02*
X157761905Y-152738371D01*
X157761905Y-152738371D02*
X157809524Y-152833609D01*
X157809524Y-152833609D02*
X157809524Y-153357419D01*
X157809524Y-152833609D02*
X157857143Y-152738371D01*
X157857143Y-152738371D02*
X157952381Y-152690752D01*
X157952381Y-152690752D02*
X158095238Y-152690752D01*
X158095238Y-152690752D02*
X158190477Y-152738371D01*
X158190477Y-152738371D02*
X158238096Y-152833609D01*
X158238096Y-152833609D02*
X158238096Y-153357419D01*
X158714286Y-153357419D02*
X158714286Y-152690752D01*
X158714286Y-152785990D02*
X158761905Y-152738371D01*
X158761905Y-152738371D02*
X158857143Y-152690752D01*
X158857143Y-152690752D02*
X159000000Y-152690752D01*
X159000000Y-152690752D02*
X159095238Y-152738371D01*
X159095238Y-152738371D02*
X159142857Y-152833609D01*
X159142857Y-152833609D02*
X159142857Y-153357419D01*
X159142857Y-152833609D02*
X159190476Y-152738371D01*
X159190476Y-152738371D02*
X159285714Y-152690752D01*
X159285714Y-152690752D02*
X159428571Y-152690752D01*
X159428571Y-152690752D02*
X159523810Y-152738371D01*
X159523810Y-152738371D02*
X159571429Y-152833609D01*
X159571429Y-152833609D02*
X159571429Y-153357419D01*
X196000000Y-134500000D02*
X196000000Y-154586420D01*
X114000000Y-134500000D02*
X114000000Y-154586420D01*
X196000000Y-154000000D02*
X114000000Y-154000000D01*
X196000000Y-154000000D02*
X114000000Y-154000000D01*
X196000000Y-154000000D02*
X194873496Y-154586421D01*
X196000000Y-154000000D02*
X194873496Y-153413579D01*
X114000000Y-154000000D02*
X115126504Y-153413579D01*
X114000000Y-154000000D02*
X115126504Y-154586421D01*
X189880952Y-145357419D02*
X189404762Y-145357419D01*
X189404762Y-145357419D02*
X189357143Y-145833609D01*
X189357143Y-145833609D02*
X189404762Y-145785990D01*
X189404762Y-145785990D02*
X189500000Y-145738371D01*
X189500000Y-145738371D02*
X189738095Y-145738371D01*
X189738095Y-145738371D02*
X189833333Y-145785990D01*
X189833333Y-145785990D02*
X189880952Y-145833609D01*
X189880952Y-145833609D02*
X189928571Y-145928847D01*
X189928571Y-145928847D02*
X189928571Y-146166942D01*
X189928571Y-146166942D02*
X189880952Y-146262180D01*
X189880952Y-146262180D02*
X189833333Y-146309800D01*
X189833333Y-146309800D02*
X189738095Y-146357419D01*
X189738095Y-146357419D02*
X189500000Y-146357419D01*
X189500000Y-146357419D02*
X189404762Y-146309800D01*
X189404762Y-146309800D02*
X189357143Y-146262180D01*
X190357143Y-146262180D02*
X190404762Y-146309800D01*
X190404762Y-146309800D02*
X190357143Y-146357419D01*
X190357143Y-146357419D02*
X190309524Y-146309800D01*
X190309524Y-146309800D02*
X190357143Y-146262180D01*
X190357143Y-146262180D02*
X190357143Y-146357419D01*
X191023809Y-145357419D02*
X191119047Y-145357419D01*
X191119047Y-145357419D02*
X191214285Y-145405038D01*
X191214285Y-145405038D02*
X191261904Y-145452657D01*
X191261904Y-145452657D02*
X191309523Y-145547895D01*
X191309523Y-145547895D02*
X191357142Y-145738371D01*
X191357142Y-145738371D02*
X191357142Y-145976466D01*
X191357142Y-145976466D02*
X191309523Y-146166942D01*
X191309523Y-146166942D02*
X191261904Y-146262180D01*
X191261904Y-146262180D02*
X191214285Y-146309800D01*
X191214285Y-146309800D02*
X191119047Y-146357419D01*
X191119047Y-146357419D02*
X191023809Y-146357419D01*
X191023809Y-146357419D02*
X190928571Y-146309800D01*
X190928571Y-146309800D02*
X190880952Y-146262180D01*
X190880952Y-146262180D02*
X190833333Y-146166942D01*
X190833333Y-146166942D02*
X190785714Y-145976466D01*
X190785714Y-145976466D02*
X190785714Y-145738371D01*
X190785714Y-145738371D02*
X190833333Y-145547895D01*
X190833333Y-145547895D02*
X190880952Y-145452657D01*
X190880952Y-145452657D02*
X190928571Y-145405038D01*
X190928571Y-145405038D02*
X191023809Y-145357419D01*
X191976190Y-145357419D02*
X192071428Y-145357419D01*
X192071428Y-145357419D02*
X192166666Y-145405038D01*
X192166666Y-145405038D02*
X192214285Y-145452657D01*
X192214285Y-145452657D02*
X192261904Y-145547895D01*
X192261904Y-145547895D02*
X192309523Y-145738371D01*
X192309523Y-145738371D02*
X192309523Y-145976466D01*
X192309523Y-145976466D02*
X192261904Y-146166942D01*
X192261904Y-146166942D02*
X192214285Y-146262180D01*
X192214285Y-146262180D02*
X192166666Y-146309800D01*
X192166666Y-146309800D02*
X192071428Y-146357419D01*
X192071428Y-146357419D02*
X191976190Y-146357419D01*
X191976190Y-146357419D02*
X191880952Y-146309800D01*
X191880952Y-146309800D02*
X191833333Y-146262180D01*
X191833333Y-146262180D02*
X191785714Y-146166942D01*
X191785714Y-146166942D02*
X191738095Y-145976466D01*
X191738095Y-145976466D02*
X191738095Y-145738371D01*
X191738095Y-145738371D02*
X191785714Y-145547895D01*
X191785714Y-145547895D02*
X191833333Y-145452657D01*
X191833333Y-145452657D02*
X191880952Y-145405038D01*
X191880952Y-145405038D02*
X191976190Y-145357419D01*
X192928571Y-145357419D02*
X193023809Y-145357419D01*
X193023809Y-145357419D02*
X193119047Y-145405038D01*
X193119047Y-145405038D02*
X193166666Y-145452657D01*
X193166666Y-145452657D02*
X193214285Y-145547895D01*
X193214285Y-145547895D02*
X193261904Y-145738371D01*
X193261904Y-145738371D02*
X193261904Y-145976466D01*
X193261904Y-145976466D02*
X193214285Y-146166942D01*
X193214285Y-146166942D02*
X193166666Y-146262180D01*
X193166666Y-146262180D02*
X193119047Y-146309800D01*
X193119047Y-146309800D02*
X193023809Y-146357419D01*
X193023809Y-146357419D02*
X192928571Y-146357419D01*
X192928571Y-146357419D02*
X192833333Y-146309800D01*
X192833333Y-146309800D02*
X192785714Y-146262180D01*
X192785714Y-146262180D02*
X192738095Y-146166942D01*
X192738095Y-146166942D02*
X192690476Y-145976466D01*
X192690476Y-145976466D02*
X192690476Y-145738371D01*
X192690476Y-145738371D02*
X192738095Y-145547895D01*
X192738095Y-145547895D02*
X192785714Y-145452657D01*
X192785714Y-145452657D02*
X192833333Y-145405038D01*
X192833333Y-145405038D02*
X192928571Y-145357419D01*
X193880952Y-145357419D02*
X193976190Y-145357419D01*
X193976190Y-145357419D02*
X194071428Y-145405038D01*
X194071428Y-145405038D02*
X194119047Y-145452657D01*
X194119047Y-145452657D02*
X194166666Y-145547895D01*
X194166666Y-145547895D02*
X194214285Y-145738371D01*
X194214285Y-145738371D02*
X194214285Y-145976466D01*
X194214285Y-145976466D02*
X194166666Y-146166942D01*
X194166666Y-146166942D02*
X194119047Y-146262180D01*
X194119047Y-146262180D02*
X194071428Y-146309800D01*
X194071428Y-146309800D02*
X193976190Y-146357419D01*
X193976190Y-146357419D02*
X193880952Y-146357419D01*
X193880952Y-146357419D02*
X193785714Y-146309800D01*
X193785714Y-146309800D02*
X193738095Y-146262180D01*
X193738095Y-146262180D02*
X193690476Y-146166942D01*
X193690476Y-146166942D02*
X193642857Y-145976466D01*
X193642857Y-145976466D02*
X193642857Y-145738371D01*
X193642857Y-145738371D02*
X193690476Y-145547895D01*
X193690476Y-145547895D02*
X193738095Y-145452657D01*
X193738095Y-145452657D02*
X193785714Y-145405038D01*
X193785714Y-145405038D02*
X193880952Y-145357419D01*
X195404762Y-146357419D02*
X195404762Y-145690752D01*
X195404762Y-145785990D02*
X195452381Y-145738371D01*
X195452381Y-145738371D02*
X195547619Y-145690752D01*
X195547619Y-145690752D02*
X195690476Y-145690752D01*
X195690476Y-145690752D02*
X195785714Y-145738371D01*
X195785714Y-145738371D02*
X195833333Y-145833609D01*
X195833333Y-145833609D02*
X195833333Y-146357419D01*
X195833333Y-145833609D02*
X195880952Y-145738371D01*
X195880952Y-145738371D02*
X195976190Y-145690752D01*
X195976190Y-145690752D02*
X196119047Y-145690752D01*
X196119047Y-145690752D02*
X196214286Y-145738371D01*
X196214286Y-145738371D02*
X196261905Y-145833609D01*
X196261905Y-145833609D02*
X196261905Y-146357419D01*
X196738095Y-146357419D02*
X196738095Y-145690752D01*
X196738095Y-145785990D02*
X196785714Y-145738371D01*
X196785714Y-145738371D02*
X196880952Y-145690752D01*
X196880952Y-145690752D02*
X197023809Y-145690752D01*
X197023809Y-145690752D02*
X197119047Y-145738371D01*
X197119047Y-145738371D02*
X197166666Y-145833609D01*
X197166666Y-145833609D02*
X197166666Y-146357419D01*
X197166666Y-145833609D02*
X197214285Y-145738371D01*
X197214285Y-145738371D02*
X197309523Y-145690752D01*
X197309523Y-145690752D02*
X197452380Y-145690752D01*
X197452380Y-145690752D02*
X197547619Y-145738371D01*
X197547619Y-145738371D02*
X197595238Y-145833609D01*
X197595238Y-145833609D02*
X197595238Y-146357419D01*
X191000000Y-138500000D02*
X191000000Y-147586420D01*
X196000000Y-138500000D02*
X196000000Y-147586420D01*
X191000000Y-147000000D02*
X196000000Y-147000000D01*
X191000000Y-147000000D02*
X196000000Y-147000000D01*
X191000000Y-147000000D02*
X192126504Y-146413579D01*
X191000000Y-147000000D02*
X192126504Y-147586421D01*
X196000000Y-147000000D02*
X194873496Y-147586421D01*
X196000000Y-147000000D02*
X194873496Y-146413579D01*
X218357419Y-102523808D02*
X218357419Y-102333332D01*
X218357419Y-102333332D02*
X218309800Y-102238094D01*
X218309800Y-102238094D02*
X218262180Y-102190475D01*
X218262180Y-102190475D02*
X218119323Y-102095237D01*
X218119323Y-102095237D02*
X217928847Y-102047618D01*
X217928847Y-102047618D02*
X217547895Y-102047618D01*
X217547895Y-102047618D02*
X217452657Y-102095237D01*
X217452657Y-102095237D02*
X217405038Y-102142856D01*
X217405038Y-102142856D02*
X217357419Y-102238094D01*
X217357419Y-102238094D02*
X217357419Y-102428570D01*
X217357419Y-102428570D02*
X217405038Y-102523808D01*
X217405038Y-102523808D02*
X217452657Y-102571427D01*
X217452657Y-102571427D02*
X217547895Y-102619046D01*
X217547895Y-102619046D02*
X217785990Y-102619046D01*
X217785990Y-102619046D02*
X217881228Y-102571427D01*
X217881228Y-102571427D02*
X217928847Y-102523808D01*
X217928847Y-102523808D02*
X217976466Y-102428570D01*
X217976466Y-102428570D02*
X217976466Y-102238094D01*
X217976466Y-102238094D02*
X217928847Y-102142856D01*
X217928847Y-102142856D02*
X217881228Y-102095237D01*
X217881228Y-102095237D02*
X217785990Y-102047618D01*
X217357419Y-101428570D02*
X217357419Y-101333332D01*
X217357419Y-101333332D02*
X217405038Y-101238094D01*
X217405038Y-101238094D02*
X217452657Y-101190475D01*
X217452657Y-101190475D02*
X217547895Y-101142856D01*
X217547895Y-101142856D02*
X217738371Y-101095237D01*
X217738371Y-101095237D02*
X217976466Y-101095237D01*
X217976466Y-101095237D02*
X218166942Y-101142856D01*
X218166942Y-101142856D02*
X218262180Y-101190475D01*
X218262180Y-101190475D02*
X218309800Y-101238094D01*
X218309800Y-101238094D02*
X218357419Y-101333332D01*
X218357419Y-101333332D02*
X218357419Y-101428570D01*
X218357419Y-101428570D02*
X218309800Y-101523808D01*
X218309800Y-101523808D02*
X218262180Y-101571427D01*
X218262180Y-101571427D02*
X218166942Y-101619046D01*
X218166942Y-101619046D02*
X217976466Y-101666665D01*
X217976466Y-101666665D02*
X217738371Y-101666665D01*
X217738371Y-101666665D02*
X217547895Y-101619046D01*
X217547895Y-101619046D02*
X217452657Y-101571427D01*
X217452657Y-101571427D02*
X217405038Y-101523808D01*
X217405038Y-101523808D02*
X217357419Y-101428570D01*
X218262180Y-100666665D02*
X218309800Y-100619046D01*
X218309800Y-100619046D02*
X218357419Y-100666665D01*
X218357419Y-100666665D02*
X218309800Y-100714284D01*
X218309800Y-100714284D02*
X218262180Y-100666665D01*
X218262180Y-100666665D02*
X218357419Y-100666665D01*
X217357419Y-99999999D02*
X217357419Y-99904761D01*
X217357419Y-99904761D02*
X217405038Y-99809523D01*
X217405038Y-99809523D02*
X217452657Y-99761904D01*
X217452657Y-99761904D02*
X217547895Y-99714285D01*
X217547895Y-99714285D02*
X217738371Y-99666666D01*
X217738371Y-99666666D02*
X217976466Y-99666666D01*
X217976466Y-99666666D02*
X218166942Y-99714285D01*
X218166942Y-99714285D02*
X218262180Y-99761904D01*
X218262180Y-99761904D02*
X218309800Y-99809523D01*
X218309800Y-99809523D02*
X218357419Y-99904761D01*
X218357419Y-99904761D02*
X218357419Y-99999999D01*
X218357419Y-99999999D02*
X218309800Y-100095237D01*
X218309800Y-100095237D02*
X218262180Y-100142856D01*
X218262180Y-100142856D02*
X218166942Y-100190475D01*
X218166942Y-100190475D02*
X217976466Y-100238094D01*
X217976466Y-100238094D02*
X217738371Y-100238094D01*
X217738371Y-100238094D02*
X217547895Y-100190475D01*
X217547895Y-100190475D02*
X217452657Y-100142856D01*
X217452657Y-100142856D02*
X217405038Y-100095237D01*
X217405038Y-100095237D02*
X217357419Y-99999999D01*
X217357419Y-99047618D02*
X217357419Y-98952380D01*
X217357419Y-98952380D02*
X217405038Y-98857142D01*
X217405038Y-98857142D02*
X217452657Y-98809523D01*
X217452657Y-98809523D02*
X217547895Y-98761904D01*
X217547895Y-98761904D02*
X217738371Y-98714285D01*
X217738371Y-98714285D02*
X217976466Y-98714285D01*
X217976466Y-98714285D02*
X218166942Y-98761904D01*
X218166942Y-98761904D02*
X218262180Y-98809523D01*
X218262180Y-98809523D02*
X218309800Y-98857142D01*
X218309800Y-98857142D02*
X218357419Y-98952380D01*
X218357419Y-98952380D02*
X218357419Y-99047618D01*
X218357419Y-99047618D02*
X218309800Y-99142856D01*
X218309800Y-99142856D02*
X218262180Y-99190475D01*
X218262180Y-99190475D02*
X218166942Y-99238094D01*
X218166942Y-99238094D02*
X217976466Y-99285713D01*
X217976466Y-99285713D02*
X217738371Y-99285713D01*
X217738371Y-99285713D02*
X217547895Y-99238094D01*
X217547895Y-99238094D02*
X217452657Y-99190475D01*
X217452657Y-99190475D02*
X217405038Y-99142856D01*
X217405038Y-99142856D02*
X217357419Y-99047618D01*
X217357419Y-98095237D02*
X217357419Y-97999999D01*
X217357419Y-97999999D02*
X217405038Y-97904761D01*
X217405038Y-97904761D02*
X217452657Y-97857142D01*
X217452657Y-97857142D02*
X217547895Y-97809523D01*
X217547895Y-97809523D02*
X217738371Y-97761904D01*
X217738371Y-97761904D02*
X217976466Y-97761904D01*
X217976466Y-97761904D02*
X218166942Y-97809523D01*
X218166942Y-97809523D02*
X218262180Y-97857142D01*
X218262180Y-97857142D02*
X218309800Y-97904761D01*
X218309800Y-97904761D02*
X218357419Y-97999999D01*
X218357419Y-97999999D02*
X218357419Y-98095237D01*
X218357419Y-98095237D02*
X218309800Y-98190475D01*
X218309800Y-98190475D02*
X218262180Y-98238094D01*
X218262180Y-98238094D02*
X218166942Y-98285713D01*
X218166942Y-98285713D02*
X217976466Y-98333332D01*
X217976466Y-98333332D02*
X217738371Y-98333332D01*
X217738371Y-98333332D02*
X217547895Y-98285713D01*
X217547895Y-98285713D02*
X217452657Y-98238094D01*
X217452657Y-98238094D02*
X217405038Y-98190475D01*
X217405038Y-98190475D02*
X217357419Y-98095237D01*
X217357419Y-97142856D02*
X217357419Y-97047618D01*
X217357419Y-97047618D02*
X217405038Y-96952380D01*
X217405038Y-96952380D02*
X217452657Y-96904761D01*
X217452657Y-96904761D02*
X217547895Y-96857142D01*
X217547895Y-96857142D02*
X217738371Y-96809523D01*
X217738371Y-96809523D02*
X217976466Y-96809523D01*
X217976466Y-96809523D02*
X218166942Y-96857142D01*
X218166942Y-96857142D02*
X218262180Y-96904761D01*
X218262180Y-96904761D02*
X218309800Y-96952380D01*
X218309800Y-96952380D02*
X218357419Y-97047618D01*
X218357419Y-97047618D02*
X218357419Y-97142856D01*
X218357419Y-97142856D02*
X218309800Y-97238094D01*
X218309800Y-97238094D02*
X218262180Y-97285713D01*
X218262180Y-97285713D02*
X218166942Y-97333332D01*
X218166942Y-97333332D02*
X217976466Y-97380951D01*
X217976466Y-97380951D02*
X217738371Y-97380951D01*
X217738371Y-97380951D02*
X217547895Y-97333332D01*
X217547895Y-97333332D02*
X217452657Y-97285713D01*
X217452657Y-97285713D02*
X217405038Y-97238094D01*
X217405038Y-97238094D02*
X217357419Y-97142856D01*
X218357419Y-95619046D02*
X217690752Y-95619046D01*
X217785990Y-95619046D02*
X217738371Y-95571427D01*
X217738371Y-95571427D02*
X217690752Y-95476189D01*
X217690752Y-95476189D02*
X217690752Y-95333332D01*
X217690752Y-95333332D02*
X217738371Y-95238094D01*
X217738371Y-95238094D02*
X217833609Y-95190475D01*
X217833609Y-95190475D02*
X218357419Y-95190475D01*
X217833609Y-95190475D02*
X217738371Y-95142856D01*
X217738371Y-95142856D02*
X217690752Y-95047618D01*
X217690752Y-95047618D02*
X217690752Y-94904761D01*
X217690752Y-94904761D02*
X217738371Y-94809522D01*
X217738371Y-94809522D02*
X217833609Y-94761903D01*
X217833609Y-94761903D02*
X218357419Y-94761903D01*
X218357419Y-94285713D02*
X217690752Y-94285713D01*
X217785990Y-94285713D02*
X217738371Y-94238094D01*
X217738371Y-94238094D02*
X217690752Y-94142856D01*
X217690752Y-94142856D02*
X217690752Y-93999999D01*
X217690752Y-93999999D02*
X217738371Y-93904761D01*
X217738371Y-93904761D02*
X217833609Y-93857142D01*
X217833609Y-93857142D02*
X218357419Y-93857142D01*
X217833609Y-93857142D02*
X217738371Y-93809523D01*
X217738371Y-93809523D02*
X217690752Y-93714285D01*
X217690752Y-93714285D02*
X217690752Y-93571428D01*
X217690752Y-93571428D02*
X217738371Y-93476189D01*
X217738371Y-93476189D02*
X217833609Y-93428570D01*
X217833609Y-93428570D02*
X218357419Y-93428570D01*
X178500000Y-143000000D02*
X219586420Y-143000000D01*
X178500000Y-53000000D02*
X219586420Y-53000000D01*
X219000000Y-143000000D02*
X219000000Y-53000000D01*
X219000000Y-143000000D02*
X219000000Y-53000000D01*
X219000000Y-143000000D02*
X218413579Y-141873496D01*
X219000000Y-143000000D02*
X219586421Y-141873496D01*
X219000000Y-53000000D02*
X219586421Y-54126504D01*
X219000000Y-53000000D02*
X218413579Y-54126504D01*
X127309523Y-74117419D02*
X126833333Y-74117419D01*
X126833333Y-74117419D02*
X126833333Y-73117419D01*
X128778095Y-68085038D02*
X128682857Y-68037419D01*
X128682857Y-68037419D02*
X128540000Y-68037419D01*
X128540000Y-68037419D02*
X128397143Y-68085038D01*
X128397143Y-68085038D02*
X128301905Y-68180276D01*
X128301905Y-68180276D02*
X128254286Y-68275514D01*
X128254286Y-68275514D02*
X128206667Y-68465990D01*
X128206667Y-68465990D02*
X128206667Y-68608847D01*
X128206667Y-68608847D02*
X128254286Y-68799323D01*
X128254286Y-68799323D02*
X128301905Y-68894561D01*
X128301905Y-68894561D02*
X128397143Y-68989800D01*
X128397143Y-68989800D02*
X128540000Y-69037419D01*
X128540000Y-69037419D02*
X128635238Y-69037419D01*
X128635238Y-69037419D02*
X128778095Y-68989800D01*
X128778095Y-68989800D02*
X128825714Y-68942180D01*
X128825714Y-68942180D02*
X128825714Y-68608847D01*
X128825714Y-68608847D02*
X128635238Y-68608847D01*
X129254286Y-69037419D02*
X129254286Y-68037419D01*
X129254286Y-68037419D02*
X129825714Y-69037419D01*
X129825714Y-69037419D02*
X129825714Y-68037419D01*
X130301905Y-69037419D02*
X130301905Y-68037419D01*
X130301905Y-68037419D02*
X130540000Y-68037419D01*
X130540000Y-68037419D02*
X130682857Y-68085038D01*
X130682857Y-68085038D02*
X130778095Y-68180276D01*
X130778095Y-68180276D02*
X130825714Y-68275514D01*
X130825714Y-68275514D02*
X130873333Y-68465990D01*
X130873333Y-68465990D02*
X130873333Y-68608847D01*
X130873333Y-68608847D02*
X130825714Y-68799323D01*
X130825714Y-68799323D02*
X130778095Y-68894561D01*
X130778095Y-68894561D02*
X130682857Y-68989800D01*
X130682857Y-68989800D02*
X130540000Y-69037419D01*
X130540000Y-69037419D02*
X130301905Y-69037419D01*
X128540000Y-63957419D02*
X128540000Y-62957419D01*
X128540000Y-62957419D02*
X128778095Y-62957419D01*
X128778095Y-62957419D02*
X128920952Y-63005038D01*
X128920952Y-63005038D02*
X129016190Y-63100276D01*
X129016190Y-63100276D02*
X129063809Y-63195514D01*
X129063809Y-63195514D02*
X129111428Y-63385990D01*
X129111428Y-63385990D02*
X129111428Y-63528847D01*
X129111428Y-63528847D02*
X129063809Y-63719323D01*
X129063809Y-63719323D02*
X129016190Y-63814561D01*
X129016190Y-63814561D02*
X128920952Y-63909800D01*
X128920952Y-63909800D02*
X128778095Y-63957419D01*
X128778095Y-63957419D02*
X128540000Y-63957419D01*
X129540000Y-63957419D02*
X129540000Y-62957419D01*
X130587618Y-63957419D02*
X130254285Y-63481228D01*
X130016190Y-63957419D02*
X130016190Y-62957419D01*
X130016190Y-62957419D02*
X130397142Y-62957419D01*
X130397142Y-62957419D02*
X130492380Y-63005038D01*
X130492380Y-63005038D02*
X130539999Y-63052657D01*
X130539999Y-63052657D02*
X130587618Y-63147895D01*
X130587618Y-63147895D02*
X130587618Y-63290752D01*
X130587618Y-63290752D02*
X130539999Y-63385990D01*
X130539999Y-63385990D02*
X130492380Y-63433609D01*
X130492380Y-63433609D02*
X130397142Y-63481228D01*
X130397142Y-63481228D02*
X130016190Y-63481228D01*
X128135238Y-66497419D02*
X128135238Y-65497419D01*
X128135238Y-65497419D02*
X128516190Y-65497419D01*
X128516190Y-65497419D02*
X128611428Y-65545038D01*
X128611428Y-65545038D02*
X128659047Y-65592657D01*
X128659047Y-65592657D02*
X128706666Y-65687895D01*
X128706666Y-65687895D02*
X128706666Y-65830752D01*
X128706666Y-65830752D02*
X128659047Y-65925990D01*
X128659047Y-65925990D02*
X128611428Y-65973609D01*
X128611428Y-65973609D02*
X128516190Y-66021228D01*
X128516190Y-66021228D02*
X128135238Y-66021228D01*
X129040000Y-65497419D02*
X129278095Y-66497419D01*
X129278095Y-66497419D02*
X129468571Y-65783133D01*
X129468571Y-65783133D02*
X129659047Y-66497419D01*
X129659047Y-66497419D02*
X129897143Y-65497419D01*
X130278095Y-66497419D02*
X130278095Y-65497419D01*
X130278095Y-65497419D02*
X130611428Y-66211704D01*
X130611428Y-66211704D02*
X130944761Y-65497419D01*
X130944761Y-65497419D02*
X130944761Y-66497419D01*
X150169523Y-74117419D02*
X149836190Y-73641228D01*
X149598095Y-74117419D02*
X149598095Y-73117419D01*
X149598095Y-73117419D02*
X149979047Y-73117419D01*
X149979047Y-73117419D02*
X150074285Y-73165038D01*
X150074285Y-73165038D02*
X150121904Y-73212657D01*
X150121904Y-73212657D02*
X150169523Y-73307895D01*
X150169523Y-73307895D02*
X150169523Y-73450752D01*
X150169523Y-73450752D02*
X150121904Y-73545990D01*
X150121904Y-73545990D02*
X150074285Y-73593609D01*
X150074285Y-73593609D02*
X149979047Y-73641228D01*
X149979047Y-73641228D02*
X149598095Y-73641228D01*
X151066667Y-60417419D02*
X151400000Y-61417419D01*
X151400000Y-61417419D02*
X151733333Y-60417419D01*
X152638095Y-61322180D02*
X152590476Y-61369800D01*
X152590476Y-61369800D02*
X152447619Y-61417419D01*
X152447619Y-61417419D02*
X152352381Y-61417419D01*
X152352381Y-61417419D02*
X152209524Y-61369800D01*
X152209524Y-61369800D02*
X152114286Y-61274561D01*
X152114286Y-61274561D02*
X152066667Y-61179323D01*
X152066667Y-61179323D02*
X152019048Y-60988847D01*
X152019048Y-60988847D02*
X152019048Y-60845990D01*
X152019048Y-60845990D02*
X152066667Y-60655514D01*
X152066667Y-60655514D02*
X152114286Y-60560276D01*
X152114286Y-60560276D02*
X152209524Y-60465038D01*
X152209524Y-60465038D02*
X152352381Y-60417419D01*
X152352381Y-60417419D02*
X152447619Y-60417419D01*
X152447619Y-60417419D02*
X152590476Y-60465038D01*
X152590476Y-60465038D02*
X152638095Y-60512657D01*
X153638095Y-61322180D02*
X153590476Y-61369800D01*
X153590476Y-61369800D02*
X153447619Y-61417419D01*
X153447619Y-61417419D02*
X153352381Y-61417419D01*
X153352381Y-61417419D02*
X153209524Y-61369800D01*
X153209524Y-61369800D02*
X153114286Y-61274561D01*
X153114286Y-61274561D02*
X153066667Y-61179323D01*
X153066667Y-61179323D02*
X153019048Y-60988847D01*
X153019048Y-60988847D02*
X153019048Y-60845990D01*
X153019048Y-60845990D02*
X153066667Y-60655514D01*
X153066667Y-60655514D02*
X153114286Y-60560276D01*
X153114286Y-60560276D02*
X153209524Y-60465038D01*
X153209524Y-60465038D02*
X153352381Y-60417419D01*
X153352381Y-60417419D02*
X153447619Y-60417419D01*
X153447619Y-60417419D02*
X153590476Y-60465038D01*
X153590476Y-60465038D02*
X153638095Y-60512657D01*
X151638095Y-68085038D02*
X151542857Y-68037419D01*
X151542857Y-68037419D02*
X151400000Y-68037419D01*
X151400000Y-68037419D02*
X151257143Y-68085038D01*
X151257143Y-68085038D02*
X151161905Y-68180276D01*
X151161905Y-68180276D02*
X151114286Y-68275514D01*
X151114286Y-68275514D02*
X151066667Y-68465990D01*
X151066667Y-68465990D02*
X151066667Y-68608847D01*
X151066667Y-68608847D02*
X151114286Y-68799323D01*
X151114286Y-68799323D02*
X151161905Y-68894561D01*
X151161905Y-68894561D02*
X151257143Y-68989800D01*
X151257143Y-68989800D02*
X151400000Y-69037419D01*
X151400000Y-69037419D02*
X151495238Y-69037419D01*
X151495238Y-69037419D02*
X151638095Y-68989800D01*
X151638095Y-68989800D02*
X151685714Y-68942180D01*
X151685714Y-68942180D02*
X151685714Y-68608847D01*
X151685714Y-68608847D02*
X151495238Y-68608847D01*
X152114286Y-69037419D02*
X152114286Y-68037419D01*
X152114286Y-68037419D02*
X152685714Y-69037419D01*
X152685714Y-69037419D02*
X152685714Y-68037419D01*
X153161905Y-69037419D02*
X153161905Y-68037419D01*
X153161905Y-68037419D02*
X153400000Y-68037419D01*
X153400000Y-68037419D02*
X153542857Y-68085038D01*
X153542857Y-68085038D02*
X153638095Y-68180276D01*
X153638095Y-68180276D02*
X153685714Y-68275514D01*
X153685714Y-68275514D02*
X153733333Y-68465990D01*
X153733333Y-68465990D02*
X153733333Y-68608847D01*
X153733333Y-68608847D02*
X153685714Y-68799323D01*
X153685714Y-68799323D02*
X153638095Y-68894561D01*
X153638095Y-68894561D02*
X153542857Y-68989800D01*
X153542857Y-68989800D02*
X153400000Y-69037419D01*
X153400000Y-69037419D02*
X153161905Y-69037419D01*
X152066667Y-65497419D02*
X152733333Y-66497419D01*
X152733333Y-65497419D02*
X152066667Y-66497419D01*
X152161905Y-63671704D02*
X152638095Y-63671704D01*
X152066667Y-63957419D02*
X152400000Y-62957419D01*
X152400000Y-62957419D02*
X152733333Y-63957419D01*
X152471428Y-58353609D02*
X152614285Y-58401228D01*
X152614285Y-58401228D02*
X152661904Y-58448847D01*
X152661904Y-58448847D02*
X152709523Y-58544085D01*
X152709523Y-58544085D02*
X152709523Y-58686942D01*
X152709523Y-58686942D02*
X152661904Y-58782180D01*
X152661904Y-58782180D02*
X152614285Y-58829800D01*
X152614285Y-58829800D02*
X152519047Y-58877419D01*
X152519047Y-58877419D02*
X152138095Y-58877419D01*
X152138095Y-58877419D02*
X152138095Y-57877419D01*
X152138095Y-57877419D02*
X152471428Y-57877419D01*
X152471428Y-57877419D02*
X152566666Y-57925038D01*
X152566666Y-57925038D02*
X152614285Y-57972657D01*
X152614285Y-57972657D02*
X152661904Y-58067895D01*
X152661904Y-58067895D02*
X152661904Y-58163133D01*
X152661904Y-58163133D02*
X152614285Y-58258371D01*
X152614285Y-58258371D02*
X152566666Y-58305990D01*
X152566666Y-58305990D02*
X152471428Y-58353609D01*
X152471428Y-58353609D02*
X152138095Y-58353609D01*
X151638095Y-88452657D02*
X151685714Y-88405038D01*
X151685714Y-88405038D02*
X151780952Y-88357419D01*
X151780952Y-88357419D02*
X152019047Y-88357419D01*
X152019047Y-88357419D02*
X152114285Y-88405038D01*
X152114285Y-88405038D02*
X152161904Y-88452657D01*
X152161904Y-88452657D02*
X152209523Y-88547895D01*
X152209523Y-88547895D02*
X152209523Y-88643133D01*
X152209523Y-88643133D02*
X152161904Y-88785990D01*
X152161904Y-88785990D02*
X151590476Y-89357419D01*
X151590476Y-89357419D02*
X152209523Y-89357419D01*
X152542857Y-88357419D02*
X153161904Y-88357419D01*
X153161904Y-88357419D02*
X152828571Y-88738371D01*
X152828571Y-88738371D02*
X152971428Y-88738371D01*
X152971428Y-88738371D02*
X153066666Y-88785990D01*
X153066666Y-88785990D02*
X153114285Y-88833609D01*
X153114285Y-88833609D02*
X153161904Y-88928847D01*
X153161904Y-88928847D02*
X153161904Y-89166942D01*
X153161904Y-89166942D02*
X153114285Y-89262180D01*
X153114285Y-89262180D02*
X153066666Y-89309800D01*
X153066666Y-89309800D02*
X152971428Y-89357419D01*
X152971428Y-89357419D02*
X152685714Y-89357419D01*
X152685714Y-89357419D02*
X152590476Y-89309800D01*
X152590476Y-89309800D02*
X152542857Y-89262180D01*
X152638095Y-108677419D02*
X152161905Y-108677419D01*
X152161905Y-108677419D02*
X152114286Y-109153609D01*
X152114286Y-109153609D02*
X152161905Y-109105990D01*
X152161905Y-109105990D02*
X152257143Y-109058371D01*
X152257143Y-109058371D02*
X152495238Y-109058371D01*
X152495238Y-109058371D02*
X152590476Y-109105990D01*
X152590476Y-109105990D02*
X152638095Y-109153609D01*
X152638095Y-109153609D02*
X152685714Y-109248847D01*
X152685714Y-109248847D02*
X152685714Y-109486942D01*
X152685714Y-109486942D02*
X152638095Y-109582180D01*
X152638095Y-109582180D02*
X152590476Y-109629800D01*
X152590476Y-109629800D02*
X152495238Y-109677419D01*
X152495238Y-109677419D02*
X152257143Y-109677419D01*
X152257143Y-109677419D02*
X152161905Y-109629800D01*
X152161905Y-109629800D02*
X152114286Y-109582180D01*
X152209523Y-114757419D02*
X151638095Y-114757419D01*
X151923809Y-114757419D02*
X151923809Y-113757419D01*
X151923809Y-113757419D02*
X151828571Y-113900276D01*
X151828571Y-113900276D02*
X151733333Y-113995514D01*
X151733333Y-113995514D02*
X151638095Y-114043133D01*
X153066666Y-113757419D02*
X152876190Y-113757419D01*
X152876190Y-113757419D02*
X152780952Y-113805038D01*
X152780952Y-113805038D02*
X152733333Y-113852657D01*
X152733333Y-113852657D02*
X152638095Y-113995514D01*
X152638095Y-113995514D02*
X152590476Y-114185990D01*
X152590476Y-114185990D02*
X152590476Y-114566942D01*
X152590476Y-114566942D02*
X152638095Y-114662180D01*
X152638095Y-114662180D02*
X152685714Y-114709800D01*
X152685714Y-114709800D02*
X152780952Y-114757419D01*
X152780952Y-114757419D02*
X152971428Y-114757419D01*
X152971428Y-114757419D02*
X153066666Y-114709800D01*
X153066666Y-114709800D02*
X153114285Y-114662180D01*
X153114285Y-114662180D02*
X153161904Y-114566942D01*
X153161904Y-114566942D02*
X153161904Y-114328847D01*
X153161904Y-114328847D02*
X153114285Y-114233609D01*
X153114285Y-114233609D02*
X153066666Y-114185990D01*
X153066666Y-114185990D02*
X152971428Y-114138371D01*
X152971428Y-114138371D02*
X152780952Y-114138371D01*
X152780952Y-114138371D02*
X152685714Y-114185990D01*
X152685714Y-114185990D02*
X152638095Y-114233609D01*
X152638095Y-114233609D02*
X152590476Y-114328847D01*
X144018095Y-106232657D02*
X144065714Y-106185038D01*
X144065714Y-106185038D02*
X144160952Y-106137419D01*
X144160952Y-106137419D02*
X144399047Y-106137419D01*
X144399047Y-106137419D02*
X144494285Y-106185038D01*
X144494285Y-106185038D02*
X144541904Y-106232657D01*
X144541904Y-106232657D02*
X144589523Y-106327895D01*
X144589523Y-106327895D02*
X144589523Y-106423133D01*
X144589523Y-106423133D02*
X144541904Y-106565990D01*
X144541904Y-106565990D02*
X143970476Y-107137419D01*
X143970476Y-107137419D02*
X144589523Y-107137419D01*
X145494285Y-106137419D02*
X145018095Y-106137419D01*
X145018095Y-106137419D02*
X144970476Y-106613609D01*
X144970476Y-106613609D02*
X145018095Y-106565990D01*
X145018095Y-106565990D02*
X145113333Y-106518371D01*
X145113333Y-106518371D02*
X145351428Y-106518371D01*
X145351428Y-106518371D02*
X145446666Y-106565990D01*
X145446666Y-106565990D02*
X145494285Y-106613609D01*
X145494285Y-106613609D02*
X145541904Y-106708847D01*
X145541904Y-106708847D02*
X145541904Y-106946942D01*
X145541904Y-106946942D02*
X145494285Y-107042180D01*
X145494285Y-107042180D02*
X145446666Y-107089800D01*
X145446666Y-107089800D02*
X145351428Y-107137419D01*
X145351428Y-107137419D02*
X145113333Y-107137419D01*
X145113333Y-107137419D02*
X145018095Y-107089800D01*
X145018095Y-107089800D02*
X144970476Y-107042180D01*
X144589523Y-122377419D02*
X144018095Y-122377419D01*
X144303809Y-122377419D02*
X144303809Y-121377419D01*
X144303809Y-121377419D02*
X144208571Y-121520276D01*
X144208571Y-121520276D02*
X144113333Y-121615514D01*
X144113333Y-121615514D02*
X144018095Y-121663133D01*
X144922857Y-121377419D02*
X145541904Y-121377419D01*
X145541904Y-121377419D02*
X145208571Y-121758371D01*
X145208571Y-121758371D02*
X145351428Y-121758371D01*
X145351428Y-121758371D02*
X145446666Y-121805990D01*
X145446666Y-121805990D02*
X145494285Y-121853609D01*
X145494285Y-121853609D02*
X145541904Y-121948847D01*
X145541904Y-121948847D02*
X145541904Y-122186942D01*
X145541904Y-122186942D02*
X145494285Y-122282180D01*
X145494285Y-122282180D02*
X145446666Y-122329800D01*
X145446666Y-122329800D02*
X145351428Y-122377419D01*
X145351428Y-122377419D02*
X145065714Y-122377419D01*
X145065714Y-122377419D02*
X144970476Y-122329800D01*
X144970476Y-122329800D02*
X144922857Y-122282180D01*
X151638095Y-101105038D02*
X151542857Y-101057419D01*
X151542857Y-101057419D02*
X151400000Y-101057419D01*
X151400000Y-101057419D02*
X151257143Y-101105038D01*
X151257143Y-101105038D02*
X151161905Y-101200276D01*
X151161905Y-101200276D02*
X151114286Y-101295514D01*
X151114286Y-101295514D02*
X151066667Y-101485990D01*
X151066667Y-101485990D02*
X151066667Y-101628847D01*
X151066667Y-101628847D02*
X151114286Y-101819323D01*
X151114286Y-101819323D02*
X151161905Y-101914561D01*
X151161905Y-101914561D02*
X151257143Y-102009800D01*
X151257143Y-102009800D02*
X151400000Y-102057419D01*
X151400000Y-102057419D02*
X151495238Y-102057419D01*
X151495238Y-102057419D02*
X151638095Y-102009800D01*
X151638095Y-102009800D02*
X151685714Y-101962180D01*
X151685714Y-101962180D02*
X151685714Y-101628847D01*
X151685714Y-101628847D02*
X151495238Y-101628847D01*
X152114286Y-102057419D02*
X152114286Y-101057419D01*
X152114286Y-101057419D02*
X152685714Y-102057419D01*
X152685714Y-102057419D02*
X152685714Y-101057419D01*
X153161905Y-102057419D02*
X153161905Y-101057419D01*
X153161905Y-101057419D02*
X153400000Y-101057419D01*
X153400000Y-101057419D02*
X153542857Y-101105038D01*
X153542857Y-101105038D02*
X153638095Y-101200276D01*
X153638095Y-101200276D02*
X153685714Y-101295514D01*
X153685714Y-101295514D02*
X153733333Y-101485990D01*
X153733333Y-101485990D02*
X153733333Y-101628847D01*
X153733333Y-101628847D02*
X153685714Y-101819323D01*
X153685714Y-101819323D02*
X153638095Y-101914561D01*
X153638095Y-101914561D02*
X153542857Y-102009800D01*
X153542857Y-102009800D02*
X153400000Y-102057419D01*
X153400000Y-102057419D02*
X153161905Y-102057419D01*
X143946667Y-90897419D02*
X144280000Y-91897419D01*
X144280000Y-91897419D02*
X144613333Y-90897419D01*
X144946667Y-91897419D02*
X144946667Y-90897419D01*
X144946667Y-90897419D02*
X145327619Y-90897419D01*
X145327619Y-90897419D02*
X145422857Y-90945038D01*
X145422857Y-90945038D02*
X145470476Y-90992657D01*
X145470476Y-90992657D02*
X145518095Y-91087895D01*
X145518095Y-91087895D02*
X145518095Y-91230752D01*
X145518095Y-91230752D02*
X145470476Y-91325990D01*
X145470476Y-91325990D02*
X145422857Y-91373609D01*
X145422857Y-91373609D02*
X145327619Y-91421228D01*
X145327619Y-91421228D02*
X144946667Y-91421228D01*
X151638095Y-90992657D02*
X151685714Y-90945038D01*
X151685714Y-90945038D02*
X151780952Y-90897419D01*
X151780952Y-90897419D02*
X152019047Y-90897419D01*
X152019047Y-90897419D02*
X152114285Y-90945038D01*
X152114285Y-90945038D02*
X152161904Y-90992657D01*
X152161904Y-90992657D02*
X152209523Y-91087895D01*
X152209523Y-91087895D02*
X152209523Y-91183133D01*
X152209523Y-91183133D02*
X152161904Y-91325990D01*
X152161904Y-91325990D02*
X151590476Y-91897419D01*
X151590476Y-91897419D02*
X152209523Y-91897419D01*
X152590476Y-90992657D02*
X152638095Y-90945038D01*
X152638095Y-90945038D02*
X152733333Y-90897419D01*
X152733333Y-90897419D02*
X152971428Y-90897419D01*
X152971428Y-90897419D02*
X153066666Y-90945038D01*
X153066666Y-90945038D02*
X153114285Y-90992657D01*
X153114285Y-90992657D02*
X153161904Y-91087895D01*
X153161904Y-91087895D02*
X153161904Y-91183133D01*
X153161904Y-91183133D02*
X153114285Y-91325990D01*
X153114285Y-91325990D02*
X152542857Y-91897419D01*
X152542857Y-91897419D02*
X153161904Y-91897419D01*
X143970476Y-98517419D02*
X144589523Y-98517419D01*
X144589523Y-98517419D02*
X144256190Y-98898371D01*
X144256190Y-98898371D02*
X144399047Y-98898371D01*
X144399047Y-98898371D02*
X144494285Y-98945990D01*
X144494285Y-98945990D02*
X144541904Y-98993609D01*
X144541904Y-98993609D02*
X144589523Y-99088847D01*
X144589523Y-99088847D02*
X144589523Y-99326942D01*
X144589523Y-99326942D02*
X144541904Y-99422180D01*
X144541904Y-99422180D02*
X144494285Y-99469800D01*
X144494285Y-99469800D02*
X144399047Y-99517419D01*
X144399047Y-99517419D02*
X144113333Y-99517419D01*
X144113333Y-99517419D02*
X144018095Y-99469800D01*
X144018095Y-99469800D02*
X143970476Y-99422180D01*
X145494285Y-98517419D02*
X145018095Y-98517419D01*
X145018095Y-98517419D02*
X144970476Y-98993609D01*
X144970476Y-98993609D02*
X145018095Y-98945990D01*
X145018095Y-98945990D02*
X145113333Y-98898371D01*
X145113333Y-98898371D02*
X145351428Y-98898371D01*
X145351428Y-98898371D02*
X145446666Y-98945990D01*
X145446666Y-98945990D02*
X145494285Y-98993609D01*
X145494285Y-98993609D02*
X145541904Y-99088847D01*
X145541904Y-99088847D02*
X145541904Y-99326942D01*
X145541904Y-99326942D02*
X145494285Y-99422180D01*
X145494285Y-99422180D02*
X145446666Y-99469800D01*
X145446666Y-99469800D02*
X145351428Y-99517419D01*
X145351428Y-99517419D02*
X145113333Y-99517419D01*
X145113333Y-99517419D02*
X145018095Y-99469800D01*
X145018095Y-99469800D02*
X144970476Y-99422180D01*
X144018095Y-118885038D02*
X143922857Y-118837419D01*
X143922857Y-118837419D02*
X143780000Y-118837419D01*
X143780000Y-118837419D02*
X143637143Y-118885038D01*
X143637143Y-118885038D02*
X143541905Y-118980276D01*
X143541905Y-118980276D02*
X143494286Y-119075514D01*
X143494286Y-119075514D02*
X143446667Y-119265990D01*
X143446667Y-119265990D02*
X143446667Y-119408847D01*
X143446667Y-119408847D02*
X143494286Y-119599323D01*
X143494286Y-119599323D02*
X143541905Y-119694561D01*
X143541905Y-119694561D02*
X143637143Y-119789800D01*
X143637143Y-119789800D02*
X143780000Y-119837419D01*
X143780000Y-119837419D02*
X143875238Y-119837419D01*
X143875238Y-119837419D02*
X144018095Y-119789800D01*
X144018095Y-119789800D02*
X144065714Y-119742180D01*
X144065714Y-119742180D02*
X144065714Y-119408847D01*
X144065714Y-119408847D02*
X143875238Y-119408847D01*
X144494286Y-119837419D02*
X144494286Y-118837419D01*
X144494286Y-118837419D02*
X145065714Y-119837419D01*
X145065714Y-119837419D02*
X145065714Y-118837419D01*
X145541905Y-119837419D02*
X145541905Y-118837419D01*
X145541905Y-118837419D02*
X145780000Y-118837419D01*
X145780000Y-118837419D02*
X145922857Y-118885038D01*
X145922857Y-118885038D02*
X146018095Y-118980276D01*
X146018095Y-118980276D02*
X146065714Y-119075514D01*
X146065714Y-119075514D02*
X146113333Y-119265990D01*
X146113333Y-119265990D02*
X146113333Y-119408847D01*
X146113333Y-119408847D02*
X146065714Y-119599323D01*
X146065714Y-119599323D02*
X146018095Y-119694561D01*
X146018095Y-119694561D02*
X145922857Y-119789800D01*
X145922857Y-119789800D02*
X145780000Y-119837419D01*
X145780000Y-119837419D02*
X145541905Y-119837419D01*
X143970476Y-101057419D02*
X144589523Y-101057419D01*
X144589523Y-101057419D02*
X144256190Y-101438371D01*
X144256190Y-101438371D02*
X144399047Y-101438371D01*
X144399047Y-101438371D02*
X144494285Y-101485990D01*
X144494285Y-101485990D02*
X144541904Y-101533609D01*
X144541904Y-101533609D02*
X144589523Y-101628847D01*
X144589523Y-101628847D02*
X144589523Y-101866942D01*
X144589523Y-101866942D02*
X144541904Y-101962180D01*
X144541904Y-101962180D02*
X144494285Y-102009800D01*
X144494285Y-102009800D02*
X144399047Y-102057419D01*
X144399047Y-102057419D02*
X144113333Y-102057419D01*
X144113333Y-102057419D02*
X144018095Y-102009800D01*
X144018095Y-102009800D02*
X143970476Y-101962180D01*
X144970476Y-101152657D02*
X145018095Y-101105038D01*
X145018095Y-101105038D02*
X145113333Y-101057419D01*
X145113333Y-101057419D02*
X145351428Y-101057419D01*
X145351428Y-101057419D02*
X145446666Y-101105038D01*
X145446666Y-101105038D02*
X145494285Y-101152657D01*
X145494285Y-101152657D02*
X145541904Y-101247895D01*
X145541904Y-101247895D02*
X145541904Y-101343133D01*
X145541904Y-101343133D02*
X145494285Y-101485990D01*
X145494285Y-101485990D02*
X144922857Y-102057419D01*
X144922857Y-102057419D02*
X145541904Y-102057419D01*
X144018095Y-108772657D02*
X144065714Y-108725038D01*
X144065714Y-108725038D02*
X144160952Y-108677419D01*
X144160952Y-108677419D02*
X144399047Y-108677419D01*
X144399047Y-108677419D02*
X144494285Y-108725038D01*
X144494285Y-108725038D02*
X144541904Y-108772657D01*
X144541904Y-108772657D02*
X144589523Y-108867895D01*
X144589523Y-108867895D02*
X144589523Y-108963133D01*
X144589523Y-108963133D02*
X144541904Y-109105990D01*
X144541904Y-109105990D02*
X143970476Y-109677419D01*
X143970476Y-109677419D02*
X144589523Y-109677419D01*
X145446666Y-108677419D02*
X145256190Y-108677419D01*
X145256190Y-108677419D02*
X145160952Y-108725038D01*
X145160952Y-108725038D02*
X145113333Y-108772657D01*
X145113333Y-108772657D02*
X145018095Y-108915514D01*
X145018095Y-108915514D02*
X144970476Y-109105990D01*
X144970476Y-109105990D02*
X144970476Y-109486942D01*
X144970476Y-109486942D02*
X145018095Y-109582180D01*
X145018095Y-109582180D02*
X145065714Y-109629800D01*
X145065714Y-109629800D02*
X145160952Y-109677419D01*
X145160952Y-109677419D02*
X145351428Y-109677419D01*
X145351428Y-109677419D02*
X145446666Y-109629800D01*
X145446666Y-109629800D02*
X145494285Y-109582180D01*
X145494285Y-109582180D02*
X145541904Y-109486942D01*
X145541904Y-109486942D02*
X145541904Y-109248847D01*
X145541904Y-109248847D02*
X145494285Y-109153609D01*
X145494285Y-109153609D02*
X145446666Y-109105990D01*
X145446666Y-109105990D02*
X145351428Y-109058371D01*
X145351428Y-109058371D02*
X145160952Y-109058371D01*
X145160952Y-109058371D02*
X145065714Y-109105990D01*
X145065714Y-109105990D02*
X145018095Y-109153609D01*
X145018095Y-109153609D02*
X144970476Y-109248847D01*
X143970476Y-95977419D02*
X144589523Y-95977419D01*
X144589523Y-95977419D02*
X144256190Y-96358371D01*
X144256190Y-96358371D02*
X144399047Y-96358371D01*
X144399047Y-96358371D02*
X144494285Y-96405990D01*
X144494285Y-96405990D02*
X144541904Y-96453609D01*
X144541904Y-96453609D02*
X144589523Y-96548847D01*
X144589523Y-96548847D02*
X144589523Y-96786942D01*
X144589523Y-96786942D02*
X144541904Y-96882180D01*
X144541904Y-96882180D02*
X144494285Y-96929800D01*
X144494285Y-96929800D02*
X144399047Y-96977419D01*
X144399047Y-96977419D02*
X144113333Y-96977419D01*
X144113333Y-96977419D02*
X144018095Y-96929800D01*
X144018095Y-96929800D02*
X143970476Y-96882180D01*
X145446666Y-96310752D02*
X145446666Y-96977419D01*
X145208571Y-95929800D02*
X144970476Y-96644085D01*
X144970476Y-96644085D02*
X145589523Y-96644085D01*
X152209523Y-104597419D02*
X151638095Y-104597419D01*
X151923809Y-104597419D02*
X151923809Y-103597419D01*
X151923809Y-103597419D02*
X151828571Y-103740276D01*
X151828571Y-103740276D02*
X151733333Y-103835514D01*
X151733333Y-103835514D02*
X151638095Y-103883133D01*
X152685714Y-104597419D02*
X152876190Y-104597419D01*
X152876190Y-104597419D02*
X152971428Y-104549800D01*
X152971428Y-104549800D02*
X153019047Y-104502180D01*
X153019047Y-104502180D02*
X153114285Y-104359323D01*
X153114285Y-104359323D02*
X153161904Y-104168847D01*
X153161904Y-104168847D02*
X153161904Y-103787895D01*
X153161904Y-103787895D02*
X153114285Y-103692657D01*
X153114285Y-103692657D02*
X153066666Y-103645038D01*
X153066666Y-103645038D02*
X152971428Y-103597419D01*
X152971428Y-103597419D02*
X152780952Y-103597419D01*
X152780952Y-103597419D02*
X152685714Y-103645038D01*
X152685714Y-103645038D02*
X152638095Y-103692657D01*
X152638095Y-103692657D02*
X152590476Y-103787895D01*
X152590476Y-103787895D02*
X152590476Y-104025990D01*
X152590476Y-104025990D02*
X152638095Y-104121228D01*
X152638095Y-104121228D02*
X152685714Y-104168847D01*
X152685714Y-104168847D02*
X152780952Y-104216466D01*
X152780952Y-104216466D02*
X152971428Y-104216466D01*
X152971428Y-104216466D02*
X153066666Y-104168847D01*
X153066666Y-104168847D02*
X153114285Y-104121228D01*
X153114285Y-104121228D02*
X153161904Y-104025990D01*
X151804761Y-132442180D02*
X151757142Y-132489800D01*
X151757142Y-132489800D02*
X151614285Y-132537419D01*
X151614285Y-132537419D02*
X151519047Y-132537419D01*
X151519047Y-132537419D02*
X151376190Y-132489800D01*
X151376190Y-132489800D02*
X151280952Y-132394561D01*
X151280952Y-132394561D02*
X151233333Y-132299323D01*
X151233333Y-132299323D02*
X151185714Y-132108847D01*
X151185714Y-132108847D02*
X151185714Y-131965990D01*
X151185714Y-131965990D02*
X151233333Y-131775514D01*
X151233333Y-131775514D02*
X151280952Y-131680276D01*
X151280952Y-131680276D02*
X151376190Y-131585038D01*
X151376190Y-131585038D02*
X151519047Y-131537419D01*
X151519047Y-131537419D02*
X151614285Y-131537419D01*
X151614285Y-131537419D02*
X151757142Y-131585038D01*
X151757142Y-131585038D02*
X151804761Y-131632657D01*
X152709523Y-132537419D02*
X152233333Y-132537419D01*
X152233333Y-132537419D02*
X152233333Y-131537419D01*
X153042857Y-132537419D02*
X153042857Y-131537419D01*
X153614285Y-132537419D02*
X153185714Y-131965990D01*
X153614285Y-131537419D02*
X153042857Y-132108847D01*
X151638095Y-85865038D02*
X151542857Y-85817419D01*
X151542857Y-85817419D02*
X151400000Y-85817419D01*
X151400000Y-85817419D02*
X151257143Y-85865038D01*
X151257143Y-85865038D02*
X151161905Y-85960276D01*
X151161905Y-85960276D02*
X151114286Y-86055514D01*
X151114286Y-86055514D02*
X151066667Y-86245990D01*
X151066667Y-86245990D02*
X151066667Y-86388847D01*
X151066667Y-86388847D02*
X151114286Y-86579323D01*
X151114286Y-86579323D02*
X151161905Y-86674561D01*
X151161905Y-86674561D02*
X151257143Y-86769800D01*
X151257143Y-86769800D02*
X151400000Y-86817419D01*
X151400000Y-86817419D02*
X151495238Y-86817419D01*
X151495238Y-86817419D02*
X151638095Y-86769800D01*
X151638095Y-86769800D02*
X151685714Y-86722180D01*
X151685714Y-86722180D02*
X151685714Y-86388847D01*
X151685714Y-86388847D02*
X151495238Y-86388847D01*
X152114286Y-86817419D02*
X152114286Y-85817419D01*
X152114286Y-85817419D02*
X152685714Y-86817419D01*
X152685714Y-86817419D02*
X152685714Y-85817419D01*
X153161905Y-86817419D02*
X153161905Y-85817419D01*
X153161905Y-85817419D02*
X153400000Y-85817419D01*
X153400000Y-85817419D02*
X153542857Y-85865038D01*
X153542857Y-85865038D02*
X153638095Y-85960276D01*
X153638095Y-85960276D02*
X153685714Y-86055514D01*
X153685714Y-86055514D02*
X153733333Y-86245990D01*
X153733333Y-86245990D02*
X153733333Y-86388847D01*
X153733333Y-86388847D02*
X153685714Y-86579323D01*
X153685714Y-86579323D02*
X153638095Y-86674561D01*
X153638095Y-86674561D02*
X153542857Y-86769800D01*
X153542857Y-86769800D02*
X153400000Y-86817419D01*
X153400000Y-86817419D02*
X153161905Y-86817419D01*
X144589523Y-117297419D02*
X144018095Y-117297419D01*
X144303809Y-117297419D02*
X144303809Y-116297419D01*
X144303809Y-116297419D02*
X144208571Y-116440276D01*
X144208571Y-116440276D02*
X144113333Y-116535514D01*
X144113333Y-116535514D02*
X144018095Y-116583133D01*
X144970476Y-116392657D02*
X145018095Y-116345038D01*
X145018095Y-116345038D02*
X145113333Y-116297419D01*
X145113333Y-116297419D02*
X145351428Y-116297419D01*
X145351428Y-116297419D02*
X145446666Y-116345038D01*
X145446666Y-116345038D02*
X145494285Y-116392657D01*
X145494285Y-116392657D02*
X145541904Y-116487895D01*
X145541904Y-116487895D02*
X145541904Y-116583133D01*
X145541904Y-116583133D02*
X145494285Y-116725990D01*
X145494285Y-116725990D02*
X144922857Y-117297419D01*
X144922857Y-117297419D02*
X145541904Y-117297419D01*
X144041905Y-124917419D02*
X144041905Y-123917419D01*
X144041905Y-123917419D02*
X144280000Y-123917419D01*
X144280000Y-123917419D02*
X144422857Y-123965038D01*
X144422857Y-123965038D02*
X144518095Y-124060276D01*
X144518095Y-124060276D02*
X144565714Y-124155514D01*
X144565714Y-124155514D02*
X144613333Y-124345990D01*
X144613333Y-124345990D02*
X144613333Y-124488847D01*
X144613333Y-124488847D02*
X144565714Y-124679323D01*
X144565714Y-124679323D02*
X144518095Y-124774561D01*
X144518095Y-124774561D02*
X144422857Y-124869800D01*
X144422857Y-124869800D02*
X144280000Y-124917419D01*
X144280000Y-124917419D02*
X144041905Y-124917419D01*
X144994286Y-124012657D02*
X145041905Y-123965038D01*
X145041905Y-123965038D02*
X145137143Y-123917419D01*
X145137143Y-123917419D02*
X145375238Y-123917419D01*
X145375238Y-123917419D02*
X145470476Y-123965038D01*
X145470476Y-123965038D02*
X145518095Y-124012657D01*
X145518095Y-124012657D02*
X145565714Y-124107895D01*
X145565714Y-124107895D02*
X145565714Y-124203133D01*
X145565714Y-124203133D02*
X145518095Y-124345990D01*
X145518095Y-124345990D02*
X144946667Y-124917419D01*
X144946667Y-124917419D02*
X145565714Y-124917419D01*
X144041905Y-127457419D02*
X144041905Y-126457419D01*
X144041905Y-126457419D02*
X144280000Y-126457419D01*
X144280000Y-126457419D02*
X144422857Y-126505038D01*
X144422857Y-126505038D02*
X144518095Y-126600276D01*
X144518095Y-126600276D02*
X144565714Y-126695514D01*
X144565714Y-126695514D02*
X144613333Y-126885990D01*
X144613333Y-126885990D02*
X144613333Y-127028847D01*
X144613333Y-127028847D02*
X144565714Y-127219323D01*
X144565714Y-127219323D02*
X144518095Y-127314561D01*
X144518095Y-127314561D02*
X144422857Y-127409800D01*
X144422857Y-127409800D02*
X144280000Y-127457419D01*
X144280000Y-127457419D02*
X144041905Y-127457419D01*
X144946667Y-126457419D02*
X145565714Y-126457419D01*
X145565714Y-126457419D02*
X145232381Y-126838371D01*
X145232381Y-126838371D02*
X145375238Y-126838371D01*
X145375238Y-126838371D02*
X145470476Y-126885990D01*
X145470476Y-126885990D02*
X145518095Y-126933609D01*
X145518095Y-126933609D02*
X145565714Y-127028847D01*
X145565714Y-127028847D02*
X145565714Y-127266942D01*
X145565714Y-127266942D02*
X145518095Y-127362180D01*
X145518095Y-127362180D02*
X145470476Y-127409800D01*
X145470476Y-127409800D02*
X145375238Y-127457419D01*
X145375238Y-127457419D02*
X145089524Y-127457419D01*
X145089524Y-127457419D02*
X144994286Y-127409800D01*
X144994286Y-127409800D02*
X144946667Y-127362180D01*
X143541905Y-85817419D02*
X144160952Y-85817419D01*
X144160952Y-85817419D02*
X143827619Y-86198371D01*
X143827619Y-86198371D02*
X143970476Y-86198371D01*
X143970476Y-86198371D02*
X144065714Y-86245990D01*
X144065714Y-86245990D02*
X144113333Y-86293609D01*
X144113333Y-86293609D02*
X144160952Y-86388847D01*
X144160952Y-86388847D02*
X144160952Y-86626942D01*
X144160952Y-86626942D02*
X144113333Y-86722180D01*
X144113333Y-86722180D02*
X144065714Y-86769800D01*
X144065714Y-86769800D02*
X143970476Y-86817419D01*
X143970476Y-86817419D02*
X143684762Y-86817419D01*
X143684762Y-86817419D02*
X143589524Y-86769800D01*
X143589524Y-86769800D02*
X143541905Y-86722180D01*
X144446667Y-85817419D02*
X144780000Y-86817419D01*
X144780000Y-86817419D02*
X145113333Y-85817419D01*
X145351429Y-85817419D02*
X145970476Y-85817419D01*
X145970476Y-85817419D02*
X145637143Y-86198371D01*
X145637143Y-86198371D02*
X145780000Y-86198371D01*
X145780000Y-86198371D02*
X145875238Y-86245990D01*
X145875238Y-86245990D02*
X145922857Y-86293609D01*
X145922857Y-86293609D02*
X145970476Y-86388847D01*
X145970476Y-86388847D02*
X145970476Y-86626942D01*
X145970476Y-86626942D02*
X145922857Y-86722180D01*
X145922857Y-86722180D02*
X145875238Y-86769800D01*
X145875238Y-86769800D02*
X145780000Y-86817419D01*
X145780000Y-86817419D02*
X145494286Y-86817419D01*
X145494286Y-86817419D02*
X145399048Y-86769800D01*
X145399048Y-86769800D02*
X145351429Y-86722180D01*
X143970476Y-103597419D02*
X144589523Y-103597419D01*
X144589523Y-103597419D02*
X144256190Y-103978371D01*
X144256190Y-103978371D02*
X144399047Y-103978371D01*
X144399047Y-103978371D02*
X144494285Y-104025990D01*
X144494285Y-104025990D02*
X144541904Y-104073609D01*
X144541904Y-104073609D02*
X144589523Y-104168847D01*
X144589523Y-104168847D02*
X144589523Y-104406942D01*
X144589523Y-104406942D02*
X144541904Y-104502180D01*
X144541904Y-104502180D02*
X144494285Y-104549800D01*
X144494285Y-104549800D02*
X144399047Y-104597419D01*
X144399047Y-104597419D02*
X144113333Y-104597419D01*
X144113333Y-104597419D02*
X144018095Y-104549800D01*
X144018095Y-104549800D02*
X143970476Y-104502180D01*
X144922857Y-103597419D02*
X145541904Y-103597419D01*
X145541904Y-103597419D02*
X145208571Y-103978371D01*
X145208571Y-103978371D02*
X145351428Y-103978371D01*
X145351428Y-103978371D02*
X145446666Y-104025990D01*
X145446666Y-104025990D02*
X145494285Y-104073609D01*
X145494285Y-104073609D02*
X145541904Y-104168847D01*
X145541904Y-104168847D02*
X145541904Y-104406942D01*
X145541904Y-104406942D02*
X145494285Y-104502180D01*
X145494285Y-104502180D02*
X145446666Y-104549800D01*
X145446666Y-104549800D02*
X145351428Y-104597419D01*
X145351428Y-104597419D02*
X145065714Y-104597419D01*
X145065714Y-104597419D02*
X144970476Y-104549800D01*
X144970476Y-104549800D02*
X144922857Y-104502180D01*
X152209523Y-112217419D02*
X151638095Y-112217419D01*
X151923809Y-112217419D02*
X151923809Y-111217419D01*
X151923809Y-111217419D02*
X151828571Y-111360276D01*
X151828571Y-111360276D02*
X151733333Y-111455514D01*
X151733333Y-111455514D02*
X151638095Y-111503133D01*
X152542857Y-111217419D02*
X153209523Y-111217419D01*
X153209523Y-111217419D02*
X152780952Y-112217419D01*
X151661905Y-129997419D02*
X151661905Y-128997419D01*
X151661905Y-128997419D02*
X151900000Y-128997419D01*
X151900000Y-128997419D02*
X152042857Y-129045038D01*
X152042857Y-129045038D02*
X152138095Y-129140276D01*
X152138095Y-129140276D02*
X152185714Y-129235514D01*
X152185714Y-129235514D02*
X152233333Y-129425990D01*
X152233333Y-129425990D02*
X152233333Y-129568847D01*
X152233333Y-129568847D02*
X152185714Y-129759323D01*
X152185714Y-129759323D02*
X152138095Y-129854561D01*
X152138095Y-129854561D02*
X152042857Y-129949800D01*
X152042857Y-129949800D02*
X151900000Y-129997419D01*
X151900000Y-129997419D02*
X151661905Y-129997419D01*
X152852381Y-128997419D02*
X152947619Y-128997419D01*
X152947619Y-128997419D02*
X153042857Y-129045038D01*
X153042857Y-129045038D02*
X153090476Y-129092657D01*
X153090476Y-129092657D02*
X153138095Y-129187895D01*
X153138095Y-129187895D02*
X153185714Y-129378371D01*
X153185714Y-129378371D02*
X153185714Y-129616466D01*
X153185714Y-129616466D02*
X153138095Y-129806942D01*
X153138095Y-129806942D02*
X153090476Y-129902180D01*
X153090476Y-129902180D02*
X153042857Y-129949800D01*
X153042857Y-129949800D02*
X152947619Y-129997419D01*
X152947619Y-129997419D02*
X152852381Y-129997419D01*
X152852381Y-129997419D02*
X152757143Y-129949800D01*
X152757143Y-129949800D02*
X152709524Y-129902180D01*
X152709524Y-129902180D02*
X152661905Y-129806942D01*
X152661905Y-129806942D02*
X152614286Y-129616466D01*
X152614286Y-129616466D02*
X152614286Y-129378371D01*
X152614286Y-129378371D02*
X152661905Y-129187895D01*
X152661905Y-129187895D02*
X152709524Y-129092657D01*
X152709524Y-129092657D02*
X152757143Y-129045038D01*
X152757143Y-129045038D02*
X152852381Y-128997419D01*
X144041905Y-88833609D02*
X144375238Y-88833609D01*
X144518095Y-89357419D02*
X144041905Y-89357419D01*
X144041905Y-89357419D02*
X144041905Y-88357419D01*
X144041905Y-88357419D02*
X144518095Y-88357419D01*
X144946667Y-89357419D02*
X144946667Y-88357419D01*
X144946667Y-88357419D02*
X145518095Y-89357419D01*
X145518095Y-89357419D02*
X145518095Y-88357419D01*
X144589523Y-114757419D02*
X144018095Y-114757419D01*
X144303809Y-114757419D02*
X144303809Y-113757419D01*
X144303809Y-113757419D02*
X144208571Y-113900276D01*
X144208571Y-113900276D02*
X144113333Y-113995514D01*
X144113333Y-113995514D02*
X144018095Y-114043133D01*
X145446666Y-114090752D02*
X145446666Y-114757419D01*
X145208571Y-113709800D02*
X144970476Y-114424085D01*
X144970476Y-114424085D02*
X145589523Y-114424085D01*
X144589523Y-131537419D02*
X144113333Y-131537419D01*
X144113333Y-131537419D02*
X144065714Y-132013609D01*
X144065714Y-132013609D02*
X144113333Y-131965990D01*
X144113333Y-131965990D02*
X144208571Y-131918371D01*
X144208571Y-131918371D02*
X144446666Y-131918371D01*
X144446666Y-131918371D02*
X144541904Y-131965990D01*
X144541904Y-131965990D02*
X144589523Y-132013609D01*
X144589523Y-132013609D02*
X144637142Y-132108847D01*
X144637142Y-132108847D02*
X144637142Y-132346942D01*
X144637142Y-132346942D02*
X144589523Y-132442180D01*
X144589523Y-132442180D02*
X144541904Y-132489800D01*
X144541904Y-132489800D02*
X144446666Y-132537419D01*
X144446666Y-132537419D02*
X144208571Y-132537419D01*
X144208571Y-132537419D02*
X144113333Y-132489800D01*
X144113333Y-132489800D02*
X144065714Y-132442180D01*
X144922857Y-131537419D02*
X145256190Y-132537419D01*
X145256190Y-132537419D02*
X145589523Y-131537419D01*
X144018095Y-129902180D02*
X143970476Y-129949800D01*
X143970476Y-129949800D02*
X143827619Y-129997419D01*
X143827619Y-129997419D02*
X143732381Y-129997419D01*
X143732381Y-129997419D02*
X143589524Y-129949800D01*
X143589524Y-129949800D02*
X143494286Y-129854561D01*
X143494286Y-129854561D02*
X143446667Y-129759323D01*
X143446667Y-129759323D02*
X143399048Y-129568847D01*
X143399048Y-129568847D02*
X143399048Y-129425990D01*
X143399048Y-129425990D02*
X143446667Y-129235514D01*
X143446667Y-129235514D02*
X143494286Y-129140276D01*
X143494286Y-129140276D02*
X143589524Y-129045038D01*
X143589524Y-129045038D02*
X143732381Y-128997419D01*
X143732381Y-128997419D02*
X143827619Y-128997419D01*
X143827619Y-128997419D02*
X143970476Y-129045038D01*
X143970476Y-129045038D02*
X144018095Y-129092657D01*
X144446667Y-129997419D02*
X144446667Y-128997419D01*
X144446667Y-128997419D02*
X144780000Y-129711704D01*
X144780000Y-129711704D02*
X145113333Y-128997419D01*
X145113333Y-128997419D02*
X145113333Y-129997419D01*
X145589524Y-129997419D02*
X145589524Y-128997419D01*
X145589524Y-128997419D02*
X145827619Y-128997419D01*
X145827619Y-128997419D02*
X145970476Y-129045038D01*
X145970476Y-129045038D02*
X146065714Y-129140276D01*
X146065714Y-129140276D02*
X146113333Y-129235514D01*
X146113333Y-129235514D02*
X146160952Y-129425990D01*
X146160952Y-129425990D02*
X146160952Y-129568847D01*
X146160952Y-129568847D02*
X146113333Y-129759323D01*
X146113333Y-129759323D02*
X146065714Y-129854561D01*
X146065714Y-129854561D02*
X145970476Y-129949800D01*
X145970476Y-129949800D02*
X145827619Y-129997419D01*
X145827619Y-129997419D02*
X145589524Y-129997419D01*
X151638095Y-93437419D02*
X152209523Y-93437419D01*
X151923809Y-94437419D02*
X151923809Y-93437419D01*
X152447619Y-93437419D02*
X153114285Y-94437419D01*
X153114285Y-93437419D02*
X152447619Y-94437419D01*
X143922857Y-93437419D02*
X144256190Y-94437419D01*
X144256190Y-94437419D02*
X144589523Y-93437419D01*
X144922857Y-94437419D02*
X144922857Y-93437419D01*
X144922857Y-93437419D02*
X145494285Y-94437419D01*
X145494285Y-94437419D02*
X145494285Y-93437419D01*
X152209523Y-107137419D02*
X151638095Y-107137419D01*
X151923809Y-107137419D02*
X151923809Y-106137419D01*
X151923809Y-106137419D02*
X151828571Y-106280276D01*
X151828571Y-106280276D02*
X151733333Y-106375514D01*
X151733333Y-106375514D02*
X151638095Y-106423133D01*
X152780952Y-106565990D02*
X152685714Y-106518371D01*
X152685714Y-106518371D02*
X152638095Y-106470752D01*
X152638095Y-106470752D02*
X152590476Y-106375514D01*
X152590476Y-106375514D02*
X152590476Y-106327895D01*
X152590476Y-106327895D02*
X152638095Y-106232657D01*
X152638095Y-106232657D02*
X152685714Y-106185038D01*
X152685714Y-106185038D02*
X152780952Y-106137419D01*
X152780952Y-106137419D02*
X152971428Y-106137419D01*
X152971428Y-106137419D02*
X153066666Y-106185038D01*
X153066666Y-106185038D02*
X153114285Y-106232657D01*
X153114285Y-106232657D02*
X153161904Y-106327895D01*
X153161904Y-106327895D02*
X153161904Y-106375514D01*
X153161904Y-106375514D02*
X153114285Y-106470752D01*
X153114285Y-106470752D02*
X153066666Y-106518371D01*
X153066666Y-106518371D02*
X152971428Y-106565990D01*
X152971428Y-106565990D02*
X152780952Y-106565990D01*
X152780952Y-106565990D02*
X152685714Y-106613609D01*
X152685714Y-106613609D02*
X152638095Y-106661228D01*
X152638095Y-106661228D02*
X152590476Y-106756466D01*
X152590476Y-106756466D02*
X152590476Y-106946942D01*
X152590476Y-106946942D02*
X152638095Y-107042180D01*
X152638095Y-107042180D02*
X152685714Y-107089800D01*
X152685714Y-107089800D02*
X152780952Y-107137419D01*
X152780952Y-107137419D02*
X152971428Y-107137419D01*
X152971428Y-107137419D02*
X153066666Y-107089800D01*
X153066666Y-107089800D02*
X153114285Y-107042180D01*
X153114285Y-107042180D02*
X153161904Y-106946942D01*
X153161904Y-106946942D02*
X153161904Y-106756466D01*
X153161904Y-106756466D02*
X153114285Y-106661228D01*
X153114285Y-106661228D02*
X153066666Y-106613609D01*
X153066666Y-106613609D02*
X152971428Y-106565990D01*
X152114286Y-121472657D02*
X152161905Y-121425038D01*
X152161905Y-121425038D02*
X152257143Y-121377419D01*
X152257143Y-121377419D02*
X152495238Y-121377419D01*
X152495238Y-121377419D02*
X152590476Y-121425038D01*
X152590476Y-121425038D02*
X152638095Y-121472657D01*
X152638095Y-121472657D02*
X152685714Y-121567895D01*
X152685714Y-121567895D02*
X152685714Y-121663133D01*
X152685714Y-121663133D02*
X152638095Y-121805990D01*
X152638095Y-121805990D02*
X152066667Y-122377419D01*
X152066667Y-122377419D02*
X152685714Y-122377419D01*
X152209523Y-124917419D02*
X151638095Y-124917419D01*
X151923809Y-124917419D02*
X151923809Y-123917419D01*
X151923809Y-123917419D02*
X151828571Y-124060276D01*
X151828571Y-124060276D02*
X151733333Y-124155514D01*
X151733333Y-124155514D02*
X151638095Y-124203133D01*
X153114285Y-123917419D02*
X152638095Y-123917419D01*
X152638095Y-123917419D02*
X152590476Y-124393609D01*
X152590476Y-124393609D02*
X152638095Y-124345990D01*
X152638095Y-124345990D02*
X152733333Y-124298371D01*
X152733333Y-124298371D02*
X152971428Y-124298371D01*
X152971428Y-124298371D02*
X153066666Y-124345990D01*
X153066666Y-124345990D02*
X153114285Y-124393609D01*
X153114285Y-124393609D02*
X153161904Y-124488847D01*
X153161904Y-124488847D02*
X153161904Y-124726942D01*
X153161904Y-124726942D02*
X153114285Y-124822180D01*
X153114285Y-124822180D02*
X153066666Y-124869800D01*
X153066666Y-124869800D02*
X152971428Y-124917419D01*
X152971428Y-124917419D02*
X152733333Y-124917419D01*
X152733333Y-124917419D02*
X152638095Y-124869800D01*
X152638095Y-124869800D02*
X152590476Y-124822180D01*
X152352381Y-118837419D02*
X152447619Y-118837419D01*
X152447619Y-118837419D02*
X152542857Y-118885038D01*
X152542857Y-118885038D02*
X152590476Y-118932657D01*
X152590476Y-118932657D02*
X152638095Y-119027895D01*
X152638095Y-119027895D02*
X152685714Y-119218371D01*
X152685714Y-119218371D02*
X152685714Y-119456466D01*
X152685714Y-119456466D02*
X152638095Y-119646942D01*
X152638095Y-119646942D02*
X152590476Y-119742180D01*
X152590476Y-119742180D02*
X152542857Y-119789800D01*
X152542857Y-119789800D02*
X152447619Y-119837419D01*
X152447619Y-119837419D02*
X152352381Y-119837419D01*
X152352381Y-119837419D02*
X152257143Y-119789800D01*
X152257143Y-119789800D02*
X152209524Y-119742180D01*
X152209524Y-119742180D02*
X152161905Y-119646942D01*
X152161905Y-119646942D02*
X152114286Y-119456466D01*
X152114286Y-119456466D02*
X152114286Y-119218371D01*
X152114286Y-119218371D02*
X152161905Y-119027895D01*
X152161905Y-119027895D02*
X152209524Y-118932657D01*
X152209524Y-118932657D02*
X152257143Y-118885038D01*
X152257143Y-118885038D02*
X152352381Y-118837419D01*
X151638095Y-98612657D02*
X151685714Y-98565038D01*
X151685714Y-98565038D02*
X151780952Y-98517419D01*
X151780952Y-98517419D02*
X152019047Y-98517419D01*
X152019047Y-98517419D02*
X152114285Y-98565038D01*
X152114285Y-98565038D02*
X152161904Y-98612657D01*
X152161904Y-98612657D02*
X152209523Y-98707895D01*
X152209523Y-98707895D02*
X152209523Y-98803133D01*
X152209523Y-98803133D02*
X152161904Y-98945990D01*
X152161904Y-98945990D02*
X151590476Y-99517419D01*
X151590476Y-99517419D02*
X152209523Y-99517419D01*
X153161904Y-99517419D02*
X152590476Y-99517419D01*
X152876190Y-99517419D02*
X152876190Y-98517419D01*
X152876190Y-98517419D02*
X152780952Y-98660276D01*
X152780952Y-98660276D02*
X152685714Y-98755514D01*
X152685714Y-98755514D02*
X152590476Y-98803133D01*
X144018095Y-111312657D02*
X144065714Y-111265038D01*
X144065714Y-111265038D02*
X144160952Y-111217419D01*
X144160952Y-111217419D02*
X144399047Y-111217419D01*
X144399047Y-111217419D02*
X144494285Y-111265038D01*
X144494285Y-111265038D02*
X144541904Y-111312657D01*
X144541904Y-111312657D02*
X144589523Y-111407895D01*
X144589523Y-111407895D02*
X144589523Y-111503133D01*
X144589523Y-111503133D02*
X144541904Y-111645990D01*
X144541904Y-111645990D02*
X143970476Y-112217419D01*
X143970476Y-112217419D02*
X144589523Y-112217419D01*
X144922857Y-111217419D02*
X145589523Y-111217419D01*
X145589523Y-111217419D02*
X145160952Y-112217419D01*
X152233333Y-96977419D02*
X151900000Y-96501228D01*
X151661905Y-96977419D02*
X151661905Y-95977419D01*
X151661905Y-95977419D02*
X152042857Y-95977419D01*
X152042857Y-95977419D02*
X152138095Y-96025038D01*
X152138095Y-96025038D02*
X152185714Y-96072657D01*
X152185714Y-96072657D02*
X152233333Y-96167895D01*
X152233333Y-96167895D02*
X152233333Y-96310752D01*
X152233333Y-96310752D02*
X152185714Y-96405990D01*
X152185714Y-96405990D02*
X152138095Y-96453609D01*
X152138095Y-96453609D02*
X152042857Y-96501228D01*
X152042857Y-96501228D02*
X151661905Y-96501228D01*
X152566667Y-95977419D02*
X153233333Y-96977419D01*
X153233333Y-95977419D02*
X152566667Y-96977419D01*
X152590476Y-116630752D02*
X152590476Y-117297419D01*
X152352381Y-116249800D02*
X152114286Y-116964085D01*
X152114286Y-116964085D02*
X152733333Y-116964085D01*
X151661905Y-127457419D02*
X151661905Y-126457419D01*
X151661905Y-126457419D02*
X151900000Y-126457419D01*
X151900000Y-126457419D02*
X152042857Y-126505038D01*
X152042857Y-126505038D02*
X152138095Y-126600276D01*
X152138095Y-126600276D02*
X152185714Y-126695514D01*
X152185714Y-126695514D02*
X152233333Y-126885990D01*
X152233333Y-126885990D02*
X152233333Y-127028847D01*
X152233333Y-127028847D02*
X152185714Y-127219323D01*
X152185714Y-127219323D02*
X152138095Y-127314561D01*
X152138095Y-127314561D02*
X152042857Y-127409800D01*
X152042857Y-127409800D02*
X151900000Y-127457419D01*
X151900000Y-127457419D02*
X151661905Y-127457419D01*
X153185714Y-127457419D02*
X152614286Y-127457419D01*
X152900000Y-127457419D02*
X152900000Y-126457419D01*
X152900000Y-126457419D02*
X152804762Y-126600276D01*
X152804762Y-126600276D02*
X152709524Y-126695514D01*
X152709524Y-126695514D02*
X152614286Y-126743133D01*
X134929523Y-74117419D02*
X134596190Y-73641228D01*
X134358095Y-74117419D02*
X134358095Y-73117419D01*
X134358095Y-73117419D02*
X134739047Y-73117419D01*
X134739047Y-73117419D02*
X134834285Y-73165038D01*
X134834285Y-73165038D02*
X134881904Y-73212657D01*
X134881904Y-73212657D02*
X134929523Y-73307895D01*
X134929523Y-73307895D02*
X134929523Y-73450752D01*
X134929523Y-73450752D02*
X134881904Y-73545990D01*
X134881904Y-73545990D02*
X134834285Y-73593609D01*
X134834285Y-73593609D02*
X134739047Y-73641228D01*
X134739047Y-73641228D02*
X134358095Y-73641228D01*
X136160000Y-63957419D02*
X136160000Y-62957419D01*
X136160000Y-62957419D02*
X136398095Y-62957419D01*
X136398095Y-62957419D02*
X136540952Y-63005038D01*
X136540952Y-63005038D02*
X136636190Y-63100276D01*
X136636190Y-63100276D02*
X136683809Y-63195514D01*
X136683809Y-63195514D02*
X136731428Y-63385990D01*
X136731428Y-63385990D02*
X136731428Y-63528847D01*
X136731428Y-63528847D02*
X136683809Y-63719323D01*
X136683809Y-63719323D02*
X136636190Y-63814561D01*
X136636190Y-63814561D02*
X136540952Y-63909800D01*
X136540952Y-63909800D02*
X136398095Y-63957419D01*
X136398095Y-63957419D02*
X136160000Y-63957419D01*
X137160000Y-63957419D02*
X137160000Y-62957419D01*
X138207618Y-63957419D02*
X137874285Y-63481228D01*
X137636190Y-63957419D02*
X137636190Y-62957419D01*
X137636190Y-62957419D02*
X138017142Y-62957419D01*
X138017142Y-62957419D02*
X138112380Y-63005038D01*
X138112380Y-63005038D02*
X138159999Y-63052657D01*
X138159999Y-63052657D02*
X138207618Y-63147895D01*
X138207618Y-63147895D02*
X138207618Y-63290752D01*
X138207618Y-63290752D02*
X138159999Y-63385990D01*
X138159999Y-63385990D02*
X138112380Y-63433609D01*
X138112380Y-63433609D02*
X138017142Y-63481228D01*
X138017142Y-63481228D02*
X137636190Y-63481228D01*
X136398095Y-68085038D02*
X136302857Y-68037419D01*
X136302857Y-68037419D02*
X136160000Y-68037419D01*
X136160000Y-68037419D02*
X136017143Y-68085038D01*
X136017143Y-68085038D02*
X135921905Y-68180276D01*
X135921905Y-68180276D02*
X135874286Y-68275514D01*
X135874286Y-68275514D02*
X135826667Y-68465990D01*
X135826667Y-68465990D02*
X135826667Y-68608847D01*
X135826667Y-68608847D02*
X135874286Y-68799323D01*
X135874286Y-68799323D02*
X135921905Y-68894561D01*
X135921905Y-68894561D02*
X136017143Y-68989800D01*
X136017143Y-68989800D02*
X136160000Y-69037419D01*
X136160000Y-69037419D02*
X136255238Y-69037419D01*
X136255238Y-69037419D02*
X136398095Y-68989800D01*
X136398095Y-68989800D02*
X136445714Y-68942180D01*
X136445714Y-68942180D02*
X136445714Y-68608847D01*
X136445714Y-68608847D02*
X136255238Y-68608847D01*
X136874286Y-69037419D02*
X136874286Y-68037419D01*
X136874286Y-68037419D02*
X137445714Y-69037419D01*
X137445714Y-69037419D02*
X137445714Y-68037419D01*
X137921905Y-69037419D02*
X137921905Y-68037419D01*
X137921905Y-68037419D02*
X138160000Y-68037419D01*
X138160000Y-68037419D02*
X138302857Y-68085038D01*
X138302857Y-68085038D02*
X138398095Y-68180276D01*
X138398095Y-68180276D02*
X138445714Y-68275514D01*
X138445714Y-68275514D02*
X138493333Y-68465990D01*
X138493333Y-68465990D02*
X138493333Y-68608847D01*
X138493333Y-68608847D02*
X138445714Y-68799323D01*
X138445714Y-68799323D02*
X138398095Y-68894561D01*
X138398095Y-68894561D02*
X138302857Y-68989800D01*
X138302857Y-68989800D02*
X138160000Y-69037419D01*
X138160000Y-69037419D02*
X137921905Y-69037419D01*
X135755238Y-66497419D02*
X135755238Y-65497419D01*
X135755238Y-65497419D02*
X136136190Y-65497419D01*
X136136190Y-65497419D02*
X136231428Y-65545038D01*
X136231428Y-65545038D02*
X136279047Y-65592657D01*
X136279047Y-65592657D02*
X136326666Y-65687895D01*
X136326666Y-65687895D02*
X136326666Y-65830752D01*
X136326666Y-65830752D02*
X136279047Y-65925990D01*
X136279047Y-65925990D02*
X136231428Y-65973609D01*
X136231428Y-65973609D02*
X136136190Y-66021228D01*
X136136190Y-66021228D02*
X135755238Y-66021228D01*
X136660000Y-65497419D02*
X136898095Y-66497419D01*
X136898095Y-66497419D02*
X137088571Y-65783133D01*
X137088571Y-65783133D02*
X137279047Y-66497419D01*
X137279047Y-66497419D02*
X137517143Y-65497419D01*
X137898095Y-66497419D02*
X137898095Y-65497419D01*
X137898095Y-65497419D02*
X138231428Y-66211704D01*
X138231428Y-66211704D02*
X138564761Y-65497419D01*
X138564761Y-65497419D02*
X138564761Y-66497419D01*
X142549523Y-74117419D02*
X142073333Y-74117419D01*
X142073333Y-74117419D02*
X142073333Y-73117419D01*
X143446667Y-60417419D02*
X143780000Y-61417419D01*
X143780000Y-61417419D02*
X144113333Y-60417419D01*
X145018095Y-61322180D02*
X144970476Y-61369800D01*
X144970476Y-61369800D02*
X144827619Y-61417419D01*
X144827619Y-61417419D02*
X144732381Y-61417419D01*
X144732381Y-61417419D02*
X144589524Y-61369800D01*
X144589524Y-61369800D02*
X144494286Y-61274561D01*
X144494286Y-61274561D02*
X144446667Y-61179323D01*
X144446667Y-61179323D02*
X144399048Y-60988847D01*
X144399048Y-60988847D02*
X144399048Y-60845990D01*
X144399048Y-60845990D02*
X144446667Y-60655514D01*
X144446667Y-60655514D02*
X144494286Y-60560276D01*
X144494286Y-60560276D02*
X144589524Y-60465038D01*
X144589524Y-60465038D02*
X144732381Y-60417419D01*
X144732381Y-60417419D02*
X144827619Y-60417419D01*
X144827619Y-60417419D02*
X144970476Y-60465038D01*
X144970476Y-60465038D02*
X145018095Y-60512657D01*
X146018095Y-61322180D02*
X145970476Y-61369800D01*
X145970476Y-61369800D02*
X145827619Y-61417419D01*
X145827619Y-61417419D02*
X145732381Y-61417419D01*
X145732381Y-61417419D02*
X145589524Y-61369800D01*
X145589524Y-61369800D02*
X145494286Y-61274561D01*
X145494286Y-61274561D02*
X145446667Y-61179323D01*
X145446667Y-61179323D02*
X145399048Y-60988847D01*
X145399048Y-60988847D02*
X145399048Y-60845990D01*
X145399048Y-60845990D02*
X145446667Y-60655514D01*
X145446667Y-60655514D02*
X145494286Y-60560276D01*
X145494286Y-60560276D02*
X145589524Y-60465038D01*
X145589524Y-60465038D02*
X145732381Y-60417419D01*
X145732381Y-60417419D02*
X145827619Y-60417419D01*
X145827619Y-60417419D02*
X145970476Y-60465038D01*
X145970476Y-60465038D02*
X146018095Y-60512657D01*
X144446667Y-65497419D02*
X145113333Y-66497419D01*
X145113333Y-65497419D02*
X144446667Y-66497419D01*
X144851428Y-58353609D02*
X144994285Y-58401228D01*
X144994285Y-58401228D02*
X145041904Y-58448847D01*
X145041904Y-58448847D02*
X145089523Y-58544085D01*
X145089523Y-58544085D02*
X145089523Y-58686942D01*
X145089523Y-58686942D02*
X145041904Y-58782180D01*
X145041904Y-58782180D02*
X144994285Y-58829800D01*
X144994285Y-58829800D02*
X144899047Y-58877419D01*
X144899047Y-58877419D02*
X144518095Y-58877419D01*
X144518095Y-58877419D02*
X144518095Y-57877419D01*
X144518095Y-57877419D02*
X144851428Y-57877419D01*
X144851428Y-57877419D02*
X144946666Y-57925038D01*
X144946666Y-57925038D02*
X144994285Y-57972657D01*
X144994285Y-57972657D02*
X145041904Y-58067895D01*
X145041904Y-58067895D02*
X145041904Y-58163133D01*
X145041904Y-58163133D02*
X144994285Y-58258371D01*
X144994285Y-58258371D02*
X144946666Y-58305990D01*
X144946666Y-58305990D02*
X144851428Y-58353609D01*
X144851428Y-58353609D02*
X144518095Y-58353609D01*
X144541905Y-63671704D02*
X145018095Y-63671704D01*
X144446667Y-63957419D02*
X144780000Y-62957419D01*
X144780000Y-62957419D02*
X145113333Y-63957419D01*
X144018095Y-68085038D02*
X143922857Y-68037419D01*
X143922857Y-68037419D02*
X143780000Y-68037419D01*
X143780000Y-68037419D02*
X143637143Y-68085038D01*
X143637143Y-68085038D02*
X143541905Y-68180276D01*
X143541905Y-68180276D02*
X143494286Y-68275514D01*
X143494286Y-68275514D02*
X143446667Y-68465990D01*
X143446667Y-68465990D02*
X143446667Y-68608847D01*
X143446667Y-68608847D02*
X143494286Y-68799323D01*
X143494286Y-68799323D02*
X143541905Y-68894561D01*
X143541905Y-68894561D02*
X143637143Y-68989800D01*
X143637143Y-68989800D02*
X143780000Y-69037419D01*
X143780000Y-69037419D02*
X143875238Y-69037419D01*
X143875238Y-69037419D02*
X144018095Y-68989800D01*
X144018095Y-68989800D02*
X144065714Y-68942180D01*
X144065714Y-68942180D02*
X144065714Y-68608847D01*
X144065714Y-68608847D02*
X143875238Y-68608847D01*
X144494286Y-69037419D02*
X144494286Y-68037419D01*
X144494286Y-68037419D02*
X145065714Y-69037419D01*
X145065714Y-69037419D02*
X145065714Y-68037419D01*
X145541905Y-69037419D02*
X145541905Y-68037419D01*
X145541905Y-68037419D02*
X145780000Y-68037419D01*
X145780000Y-68037419D02*
X145922857Y-68085038D01*
X145922857Y-68085038D02*
X146018095Y-68180276D01*
X146018095Y-68180276D02*
X146065714Y-68275514D01*
X146065714Y-68275514D02*
X146113333Y-68465990D01*
X146113333Y-68465990D02*
X146113333Y-68608847D01*
X146113333Y-68608847D02*
X146065714Y-68799323D01*
X146065714Y-68799323D02*
X146018095Y-68894561D01*
X146018095Y-68894561D02*
X145922857Y-68989800D01*
X145922857Y-68989800D02*
X145780000Y-69037419D01*
X145780000Y-69037419D02*
X145541905Y-69037419D01*
%TO.C,U1*%
X115590000Y-85120000D02*
X143490000Y-85120000D01*
X143490000Y-133320000D01*
X115590000Y-133320000D01*
X115590000Y-85120000D01*
X120540000Y-79120000D02*
X138540000Y-79120000D01*
X138540000Y-85120000D01*
X120540000Y-85120000D01*
X120540000Y-79120000D01*
%TD*%
M02*
